<?xml version="1.0" encoding="UTF-8" standalone="no"?>
<!-- Created with Inkscape (http://www.inkscape.org/) -->

<svg
   version="1.1"
   id="svg1"
   width="774.76056"
   height="440.78873"
   viewBox="0 0 774.76056 440.78873"
   xmlns="http://www.w3.org/2000/svg"
   xmlns:svg="http://www.w3.org/2000/svg">
  <defs
     id="defs1" />
  <g
     id="g1">
    <path
       style="fill:#2b9d20;fill-opacity:1"
       d="m 398.11985,434.81552 c -0.27198,-0.80488 -0.67007,-3.47848 -0.88465,-5.94135 l -0.39013,-4.47794 -4.7324,-2.50718 c -6.31573,-3.34602 -9.47252,-4.4217 -13.52112,-4.60732 l -3.38028,-0.15497 0.1467,-4.98564 0.14671,-4.98563 -3.84504,-1.59266 -3.84503,-1.59267 1.21365,-2.16867 1.21365,-2.16867 -1.92035,-3.71355 -1.92035,-3.71354 -1.71828,0.65936 c -2.51749,0.96605 -5.92184,-2.2345 -6.91272,-6.4989 l -0.86399,-3.71831 h 1.2676 c 0.69718,0 2.50885,-2.00839 4.02594,-4.46309 l 2.75834,-4.46309 -0.73769,-2.82093 -0.73769,-2.82093 1.46991,-0.90845 c 0.80845,-0.49965 1.4699,-2.08945 1.4699,-3.53288 v -2.62443 h -1.79969 c -0.98983,0 -2.60267,-1.50039 -3.58409,-3.33419 l -1.7844,-3.33419 1.59043,-1.91636 1.59044,-1.91635 -2.06268,-0.79153 c -1.13448,-0.43534 -2.06268,-1.5041 -2.06268,-2.37504 0,-1.88659 -3.50442,-4.84292 -7.92161,-6.68266 l -3.18922,-1.3283 1.65234,-1.99094 1.65233,-1.99094 -0.94996,-5.08524 -0.94995,-5.08525 -4.89123,-6.0845 c -2.69018,-3.34648 -9.48096,-10.70683 -15.09063,-16.35632 l -10.1994,-10.27181 -1.61518,0.55668 c -2.309,0.79582 -7.17355,-2.08254 -7.17355,-4.2446 v -1.82653 l -4.59871,-2.18223 c -5.72985,-2.719 -10.32654,-2.76174 -16.56759,-0.15407 -6.26299,2.61685 -6.87563,2.56445 -7.90412,-0.67605 -0.47206,-1.48733 -1.47545,-2.70423 -2.22976,-2.70423 -0.75431,0 -3.90767,-2.0111 -7.00747,-4.46911 -3.09981,-2.45802 -7.37735,-5.21403 -9.50565,-6.12447 l -3.86965,-1.65536 -1.86159,1.54499 -1.8616,1.54498 -5.14624,-2.05911 -5.14624,-2.05912 -3.65773,2.21938 c -2.01175,1.22066 -3.65773,2.6869 -3.65773,3.25832 0,0.57142 -1.2169,1.03894 -2.70423,1.03894 h -2.70422 l 0.005,-2.3662 0.005,-2.36619 -5.75139,-5.04931 -5.75139,-5.0493 -3.67074,-0.0211 -3.67074,-0.0211 -1.61842,-3.04225 c -0.89014,-1.67324 -3.18192,-4.7056 -5.09285,-6.73857 l -3.47442,-3.69632 -4.94599,0.1938 -4.94599,0.19381 -3.71221,-2.92003 -3.7122,-2.92002 -5.98119,0 c -16.9901,0 -29.54456,3.61062 -31.6304,9.09679 l -1.33979,3.52392 1.44288,0.89175 1.44288,0.89175 -3.11726,1.42032 c -1.71449,0.78117 -5.07824,3.07037 -7.47499,5.0871 l -4.35773,3.66679 0,3.21251 0,3.21252 2.42641,1.29857 c 1.33452,0.71422 4.22466,4.73864 6.42253,8.94317 l 3.99613,7.6446 -2.24131,1.64102 -2.24132,1.64102 -0.96451,6.43178 c -0.53047,3.53748 -1.77657,7.24385 -2.76909,8.23637 -0.99252,0.99252 -2.96701,3.85252 -4.38775,6.35554 l -2.58317,4.55096 -5.04862,-0.31325 -5.04862,-0.31326 0.76086,1.98277 0.76086,1.98277 -2.54844,1.36389 c -1.40164,0.75013 -3.52807,2.34351 -4.7254,3.54084 l -2.17696,2.17696 -10.15208,0.37596 -10.152079,0.37597 -2.338315,2.11614 -2.338316,2.11615 -5.104824,-1.15133 c -7.649196,-1.72517 -13.095277,0.28833 -13.095277,4.84153 l 0,1.86261 -2.366197,0.16012 c -1.301409,0.0881 -2.974648,0.0176 -3.71831,-0.1566 -0.743662,-0.17419 -3.146755,-0.28349 -5.340207,-0.24288 l -3.988094,0.0738 -2.096413,2.61687 -2.096413,2.61688 -6.760563,0.86474 c -3.71831,0.47561 -6.963381,1.46484 -7.211268,2.19829 -0.247887,0.73344 -1.464789,1.33749 -2.704225,1.34232 l -2.253521,0.009 -4.38597,-5.05471 -4.38597,-5.05471 0.732639,-2.30834 0.73264,-2.30835 -2.647248,-1.41676 -2.647249,-1.41677 0.711799,-2.72192 0.711799,-2.72192 -2.523896,-0.21423 c -1.388143,-0.11783 -3.588685,-0.12501 -4.890093,-0.0159 -1.301409,0.10906 -2.366198,-0.40299 -2.366198,-1.13788 0,-0.7349 -0.760563,-1.34316 -1.6901405,-1.35169 -0.9295774,-0.009 -2.8580699,-2.45313 -4.2855388,-5.43244 l -2.595398,-5.41694 2.9334262,-2.7329 2.9334261,-2.7329 0,-3.24194 0,-3.24194 4.351203,-0.4237 4.351203,-0.4237 3.124337,-4.65207 c 1.718385,-2.55864 3.486947,-6.09683 3.930138,-7.86264 l 0.805801,-3.21057 -3.515613,-3.66951 -3.515612,-3.66951 -0.327976,-7.83775 c -0.180386,-4.31077 -0.803837,-8.13186 -1.385446,-8.49131 -0.581609,-0.35946 -1.057472,-2.3685 -1.057472,-4.46454 l 0,-3.81098 -2.028169,-1.68323 c -1.115493,-0.92578 -2.028169,-2.82563 -2.028169,-4.2219 v -2.53866 l -1.6901405,-0.0857 c -0.9295774,-0.0471 -0.3211267,-0.63598 1.3521125,-1.30854 l 3.042254,-1.22284 v -3.77928 -3.77928 l 3.042253,-1.33471 3.042254,-1.33471 -0.146321,-5.25125 -0.14632,-5.25126 8.583898,-8.94593 8.583898,-8.94593 0.01313,-2.45731 0.01313,-2.45731 2.366197,0.70296 c 1.301409,0.38663 3.932473,1.0752 5.84681,1.53015 l 3.480612,0.82719 1.755369,-2.11509 1.75537,-2.11509 9.731452,0 9.731452,0 3.263672,-3.71831 c 1.795019,-2.04507 4.186435,-5.54367 5.314256,-7.77465 l 2.050584,-4.05634 3.380282,-0.0397 3.380282,-0.0397 -0.42302,-3.00257 -0.423019,-3.00258 1.787914,0 c 0.983352,0 2.548751,-1.21829 3.478663,-2.70732 l 1.69075,-2.70732 2.867493,1.69324 2.867489,1.69323 0.61208,-1.69014 c 0.33664,-0.92957 1.84337,-1.69014 3.34828,-1.69014 l 2.73621,0 -0.74595,-1.94392 -0.74596,-1.94393 2.96749,-0.42227 2.9675,-0.42227 0.43206,-3.04226 c 0.42273,-2.97648 2.94822,-4.39454 2.94822,-1.65541 l 0,1.38683 4.39436,-2.24607 c 2.4169,-1.23535 4.8668,-3.05105 5.44421,-4.03491 l 1.04985,-1.78882 1.81793,0.6976 1.81793,0.69761 0.85492,-2.2279 c 0.47021,-1.22534 0.51281,-2.78143 0.0947,-3.45798 l -0.76024,-1.2301 2.10797,0 c 1.15938,0 2.10796,-0.60845 2.10796,-1.35211 v -1.35212 h 3.3131 3.31309 l 1.34429,-2.36619 1.34429,-2.3662 2.89293,1.7726 2.89293,1.7726 3.94265,-0.86595 c 2.16845,-0.47627 3.94264,-1.46705 3.94264,-2.20174 l 0,-1.3358 2.86534,0.90943 2.86534,0.90942 3.5572,-1.65212 c 1.95645,-0.90866 4.68026,-2.23113 6.05291,-2.93882 l 2.49572,-1.2867 2.23667,1.91499 c 2.75275,2.35684 7.11715,4.18686 9.20858,3.86122 0.8599,-0.13389 2.36081,1.55793 3.33537,3.7596 l 1.77191,4.00304 3.17063,1.44463 3.17063,1.44464 -0.23916,2.35715 c -0.13154,1.29644 -0.1691,3.11054 -0.0835,4.03132 l 0.1557,1.67417 5.40845,0.86484 c 2.97465,0.47567 5.40845,1.37458 5.40845,1.99758 0,0.623 3.05814,1.53841 6.79586,2.03423 l 6.79587,0.90151 2.66033,3.73609 2.66034,3.7361 -2.01958,0.77499 c -1.11077,0.42624 -2.01958,1.81096 -2.01958,3.07715 0,1.26619 -1.05212,3.46475 -2.33805,4.88569 l -2.33806,2.58352 2.46035,1.37688 c 1.3532,0.75729 3.29418,3.29332 4.3133,5.63562 1.01912,2.34231 1.87677,3.45818 1.90587,2.47971 0.0291,-0.97847 -0.58527,-2.97152 -1.36529,-4.429 l -1.41822,-2.64997 3.91523,-5.71185 3.91524,-5.71184 1.7252,0.39332 1.7252,0.39332 -0.69739,-1.81737 -0.69739,-1.81738 3.57376,-1.46039 c 1.96558,-0.80322 4.77362,-1.86836 6.2401,-2.36699 l 2.66634,-0.9066 -1.80193,-1.11365 c -2.2616,-1.39775 -6.33656,-0.3862 -8.3844,2.08129 -2.11365,2.5468 -4.3891,2.36669 -8.10401,-0.64146 l -3.1164,-2.52351 12.42893,-11.89492 12.42893,-11.89491 4.73487,-8.61403 c 5.24535,-9.54276 5.58785,-11.58648 2.82814,-16.87607 -2.24859,-4.3099 -1.5292,-5.40117 2.83799,-4.30507 l 3.23404,0.81169 2.55226,-2.30977 2.55227,-2.30977 2.16037,4.17768 2.16036,4.17769 h 2.38361 c 1.31099,0 4.72093,-1.19163 7.57764,-2.64807 l 5.19403,-2.64807 3.82616,1.97859 3.82616,1.97858 7.42583,-3.39665 7.42584,-3.39665 6.82578,-6.9343 c 3.75419,-3.81387 6.82579,-7.764391 6.82579,-8.778939 v -1.844633 l 2.15475,0 2.15476,0 0.69872,-2.671921 0.69872,-2.671921 2.35195,1.258722 2.35194,1.258722 4.59003,-2.461659 4.59003,-2.46166 0.007,-2.000059 c 0.004,-1.100033 1.52849,-3.60499 3.38765,-5.566571 l 3.38028,-3.56651 4.99062,-0.02336 4.99063,-0.02336 1.07317,-1.690141 c 0.59025,-0.929577 1.0825,-2.254815 1.09389,-2.944973 0.0114,-0.690158 1.65986,-1.693212 3.66328,-2.229009 2.00342,-0.535797 5.07721,-2.408803 6.83064,-4.162235 l 3.18806,-3.188059 1.85601,-6.751946 c 1.0208,-3.713571 2.70948,-8.085851 3.75261,-9.716179 l 1.89662,-2.964233 -0.22454,-6.500556 c -0.12349,-3.575306 -0.17046,-7.467956 -0.10438,-8.650334 L 384,20.714527 l 5.34041,-1.762494 5.34041,-1.762494 8.06154,0.730995 8.06155,0.730996 3.83748,-4.81694 c 3.89024,-4.8831697 7.95087,-9.0749818 11.76436,-12.1444492 L 428.50558,0 l 171.73294,0 171.73294,0 -0.77828,2.028169 -0.77828,2.028169 -2.81393,0 c -3.96901,0 -10.98874,5.1348387 -12.88921,9.428286 l -1.60398,3.623656 1.37743,7.263169 c 1.33692,7.049581 2.91749,9.367803 6.41619,9.410663 2.04956,0.02511 2.12079,1.416215 0.31562,6.164151 l -1.37452,3.615265 -1.94051,-1.610482 -1.94051,-1.610483 -8.17793,8.488211 -8.17792,8.488211 v 2.845733 c 0,1.565152 0.73611,3.581843 1.6358,4.481534 l 1.6358,1.635801 -2.3883,4.043072 c -1.31356,2.223689 -1.97517,4.043071 -1.47024,4.043071 0.50493,0 0.20556,0.858507 -0.66527,1.907794 l -1.58333,1.907793 1.39889,0.864561 c 0.76939,0.475508 1.19677,2.18898 0.94973,3.807715 l -0.44916,2.943156 3.04751,2.397166 c 1.67612,1.318442 3.97532,2.397167 5.10931,2.397167 l 2.06182,0 0.85444,2.692126 c 0.99368,3.130795 -0.0919,5.42055 -2.56987,5.42055 -2.90812,0 -8.67985,5.857456 -9.64694,9.790216 l -0.91125,3.70571 2.08621,0.80056 2.08621,0.80055 -0.68852,1.79425 c -0.37868,0.98683 -2.31772,2.20078 -4.30899,2.69767 -1.99126,0.49688 -4.70563,1.88144 -6.03194,3.07678 l -2.41148,2.17336 0.87486,5.83398 0.87486,5.83397 -2.83857,0 -2.83856,0 -3.73625,-5.74648 c -2.05494,-3.16057 -4.64948,-6.46003 -5.76566,-7.33215 l -2.02942,-1.58567 -3.55433,0.7078 -3.55432,0.7078 -0.91984,-1.48833 c -0.50591,-0.81858 -2.38365,-1.48833 -4.17275,-1.48833 h -3.25291 l -1.57767,-2.9479 -1.57767,-2.9479 -1.51216,2.05901 -1.51215,2.05902 -7.10708,-0.25352 -7.10708,-0.25351 -1.50918,1.81846 c -0.83006,1.00015 -2.3392,1.81846 -3.35365,1.81846 l -1.84447,0 -1.97732,4.73239 -1.97732,4.7324 h -1.73321 c -0.95326,0 -4.32175,2.77952 -7.48554,6.17671 l -5.75233,6.17671 -1.27967,-0.79088 -1.27967,-0.79088 -1.97123,2.81431 -1.97122,2.81432 0.68429,2.61675 0.6843,2.61676 h -2.86192 -2.86193 v 2.60609 2.60609 l -3.56262,2.80236 c -4.48808,3.53032 -5.27331,3.51104 -5.54805,-0.13617 l -0.22135,-2.93853 -3.78469,-3.09735 -3.7847,-3.09735 -3.38028,-0.0411 c -1.85915,-0.0226 -5.78552,0.62669 -8.72527,1.44285 l -5.34499,1.48394 -5.79552,6.28317 -5.79552,6.28317 -0.0144,3.71831 -0.0144,3.71831 h -1.85915 l -1.85916,0 -0.87676,4.3838 -0.87676,4.38381 1.04578,0.34585 c 0.57517,0.19022 0.84438,4.1499 0.59823,8.7993 l -0.44753,8.45344 -4.57111,4.73637 -4.57111,4.73638 1.27963,2.02419 c 2.04626,3.23688 1.56327,4.05235 -2.40017,4.05235 l -3.72121,0 -6.5334,6.08451 c -3.59336,3.34648 -6.93854,6.07519 -7.43371,6.0638 -2.21115,-0.0508 -3.91819,-2.33069 -4.67994,-6.25029 l -0.82456,-4.24282 2.64011,-2.38927 2.64012,-2.38927 v 1.40397 c 0,0.77219 1.26496,1.73477 2.81103,2.13908 l 2.81103,0.7351 -0.70249,-1.83066 -0.70249,-1.83066 1.86662,-1.54916 c 1.02665,-0.85204 2.05527,-2.83894 2.28583,-4.41533 l 0.4192,-2.86617 4.32754,-0.0779 c 2.38015,-0.0428 5.06567,-0.81637 5.96782,-1.71894 l 1.64026,-1.64105 -4.95373,0.80387 -4.95372,0.80388 v -1.93466 c 0,-1.06406 0.76056,-2.73318 1.69014,-3.70916 l 1.69014,-1.77451 -3.26856,0.99097 -3.26856,0.99097 2.93053,-3.72557 c 1.61179,-2.04906 2.93053,-4.49109 2.93053,-5.42673 0,-0.93564 0.91268,-2.05139 2.02817,-2.47945 1.1155,-0.42805 2.02817,-1.52751 2.02817,-2.44325 v -1.66497 l -1.62253,1.62254 c -2.6984,2.69839 -3.43528,1.90631 -4.46548,-4.8 l -0.9866,-6.42254 -1.26762,3.35611 -1.26762,3.3561 1.43307,0.47769 c 0.78819,0.26273 1.06421,1.07452 0.61338,1.80398 -0.45083,0.72946 -0.8197,3.45371 -0.8197,6.05389 v 4.72761 l -3.27122,1.24372 -3.27121,1.24371 1.63494,2.61796 1.63494,2.61795 -1.7252,2.07874 -1.72519,2.07873 0.87225,1.41134 c 0.47974,0.77624 0.47796,2.04934 -0.004,2.82911 l -0.87623,1.41777 -1.89057,-1.56904 -1.89058,-1.56903 -2.05958,0.79033 c -1.13277,0.43469 -2.50953,0.85872 -3.05947,0.94231 -0.54994,0.0836 -1.76046,0.78318 -2.69003,1.55466 l -1.69014,1.40269 -2.02817,-1.68323 c -2.53861,-2.10686 -2.55121,-3.34014 -0.0596,-5.83175 l 1.96858,-1.96858 1.78752,-10.63504 1.78753,-10.63505 1.65235,0.33803 1.65235,0.33802 -0.10675,-5.07042 -0.10674,-5.07042 -1.31122,3.57783 -1.31122,3.57783 -2.63702,0.6896 c -3.41265,0.89243 -3.71279,0.28738 -5.25318,-10.58977 -0.71199,-5.02751 -1.93635,-9.78276 -2.72081,-10.56722 -0.78447,-0.78447 -1.4263,-1.98402 -1.4263,-2.66569 v -1.23939 l 2.60306,0.68072 2.60307,0.68072 -0.71519,-1.86374 -0.71518,-1.86373 2.16846,-0.83211 2.16846,-0.83212 v -7.96801 -7.96802 h 2.49734 c 1.37353,0 3.94754,-1.25776 5.72001,-2.79501 l 3.22268,-2.79501 1.24717,2.79501 1.24717,2.79501 2.15957,-0.0207 c 1.18777,-0.0114 3.05185,-0.58504 4.1424,-1.27477 l 1.98282,-1.25407 1.57758,1.30928 1.57759,1.30928 0.79152,-2.06268 0.79153,-2.06268 3.32357,0 3.32358,0 0.63188,2.3662 0.63188,2.3662 1.00558,-3.15126 1.00558,-3.15126 2.64089,0.69061 2.6409,0.69061 -0.82469,-3.28583 -0.82469,-3.28583 2.17522,0 c 1.19637,0 3.3173,1.36901 4.71317,3.04225 l 2.53795,3.04226 0.045,-1.69014 c 0.0247,-0.92958 -0.62856,-1.69015 -1.45179,-1.69015 h -1.49677 l 0.76456,-1.99241 0.76456,-1.99241 -1.86649,-1.04984 -1.86648,-1.04984 1.76439,-2.40821 1.7644,-2.40822 4.08285,-0.29601 c 6.15534,-0.44627 3.97107,-1.87244 -2.39493,-1.56371 l -5.53368,0.26837 -2.51703,2.27788 -2.51704,2.27789 -0.89009,-1.44019 c -0.48954,-0.79211 -1.40566,-1.4402 -2.03582,-1.4402 l -1.14573,0 0.70717,2.70423 0.70718,2.70422 h -2.89539 -2.89539 l -1.2412,3.26459 c -1.31003,3.44564 -3.40189,4.50472 -10.53888,5.3357 l -4.37834,0.50978 v -1.20822 c 0,-0.66452 -1.53672,-1.79247 -3.41494,-2.50657 -4.41802,-1.67973 -5.34158,-4.31463 -3.42543,-9.77272 l 1.54865,-4.41129 -3.29986,-2.85801 -3.29985,-2.85801 4.6536,-2.21915 4.65361,-2.21915 -0.85749,-4.570811 -0.85749,-4.570811 1.47354,-0.910699 c 0.81045,-0.500884 1.47354,-2.321415 1.47354,-4.045624 0,-1.724208 0.91268,-3.892379 2.02817,-4.818155 1.11549,-0.925777 2.02817,-3.11583 2.02817,-4.866784 v -3.183552 l 3.38028,-2.214846 c 1.85916,-1.218165 3.38028,-2.799596 3.38028,-3.514291 0,-2.207467 -7.84481,4.790813 -9.3836,8.371022 -0.79908,1.859155 -2.96013,6.11831 -4.80235,9.464789 l -3.34948,6.084506 0.76247,3.71831 0.76248,3.71831 -1.31656,0 c -0.7241,0 -3.27433,1.828846 -5.66718,4.064106 l -4.35064,4.0641 -5.41622,-5.41621 c -2.97892,-2.978924 -4.9461,-5.416221 -4.37153,-5.416221 0.57458,0 0.10968,-1.064789 -1.03311,-2.366197 -1.14279,-1.301409 -2.47755,-3.680265 -2.96615,-5.286348 -0.48859,-1.606083 -1.74124,-3.627995 -2.78367,-4.493138 l -1.89534,-1.572986 2.5958,7.101807 c 1.42769,3.905994 3.21683,7.722835 3.97587,8.481869 2.43198,2.431984 1.49243,3.542914 -3.01431,3.564144 -2.4169,0.0114 -5.30704,0.66906 -6.42253,1.46148 l -2.02817,1.44077 3.64083,-0.79173 3.64083,-0.79174 3.79579,1.64262 c 2.08768,0.90344 5.06133,2.5857 6.60811,3.73836 l 2.81233,2.09574 -0.55881,1.67641 c -0.81106,2.43319 0.72155,2.05855 3.97379,-0.97137 l 2.84206,-2.64778 2.52705,1.35244 2.52704,1.35243 -1.37657,2.57215 c -0.75711,1.41468 -1.99141,2.95214 -2.74288,3.41658 l -1.36631,0.84442 2.38767,4.06367 2.38766,4.06366 -2.62463,1.92778 c -3.39196,2.49138 -7.08452,2.45905 -8.50233,-0.0744 -0.61628,-1.10121 -3.08031,-2.39417 -5.47564,-2.87323 l -4.35515,-0.87103 v 1.66578 1.66579 l 1.90113,-0.72953 1.90113,-0.72953 2.23787,2.47281 2.23786,2.47281 -3.80096,1.46036 -3.80097,1.46035 5.40845,-0.30604 5.40845,-0.30604 0.42475,5.93018 0.42475,5.93018 -1.43883,1.43883 -1.43884,1.43883 v -2.29859 -2.29859 l -3.71831,0.10675 -3.71831,0.10674 1.69014,0.68199 c 2.22005,0.89581 2.14155,3.37878 -0.20842,6.59256 l -1.89857,2.59644 -2.8412,-3.3521 -2.8412,-3.3521 1.32602,3.71831 1.32602,3.71831 h -1.96353 c -1.07995,0 -2.92157,1.46214 -4.0925,3.24921 l -2.12895,3.2492 -3.31067,-3.31066 c -1.82086,-1.82087 -3.31998,-4.3478 -3.33136,-5.6154 -0.0114,-1.26761 -0.58711,-3.20037 -1.27938,-4.29502 l -1.25867,-1.99027 -0.83612,2.17888 -0.83611,2.17889 -2.95493,-0.64686 c -1.62521,-0.35577 -3.86761,-0.99087 -4.9831,-1.41133 -1.11549,-0.42046 -4.46197,-0.97522 -7.43662,-1.2328 -2.97465,-0.25758 -5.61127,-1.07637 -5.85916,-1.81954 -0.66957,-2.00737 -2.92957,-1.63602 -2.92957,0.48137 v 1.83258 l -4.39437,1.47091 -4.39437,1.47092 5.06024,-0.74783 c 2.78314,-0.41131 6.12962,-0.28933 7.43662,0.27106 2.6164,1.1218 4.35428,1.40674 10.68051,1.75119 l 4.24778,0.23128 0.82578,3.29016 0.82578,3.29016 2.70108,0.85729 c 1.4856,0.47151 2.70109,1.33141 2.70109,1.91088 0,0.57947 2.12957,3.24633 4.73239,5.92637 l 4.7324,4.87279 v 5.47547 5.47547 h -3.17073 -3.17072 l -2.31864,-2.56207 c -1.27525,-1.40913 -3.83601,-2.85213 -5.69059,-3.20665 l -3.37195,-0.64459 2.99067,3.18341 c 3.46192,3.68505 5.98652,4.63495 15.35921,5.77901 l 6.80937,0.83117 0.43108,3.03478 0.43109,3.03478 -3.77178,5.24723 -3.77178,5.24724 -5.31562,-0.71298 -5.31562,-0.71297 -2.49862,-2.49862 c -2.33913,-2.33913 -4.96444,-3.10901 -8.88939,-2.60684 -0.91211,0.1167 -3.1938,-0.79386 -5.07042,-2.02347 l -3.41204,-2.23566 v 1.53338 1.53338 l -3.39557,-0.85223 -3.39557,-0.85223 0.83601,2.17858 0.836,2.17859 h 3.64125 c 2.00269,0 4.40535,0.76056 5.33923,1.69014 0.93389,0.92958 3.32327,1.69014 5.30975,1.69014 h 3.61178 l 1.63347,3.38126 c 0.89841,1.85969 3.51886,5.18758 5.82324,7.39531 l 4.18978,4.01406 2.6402,-1.64884 c 4.56804,-2.85278 12.14169,1.29292 12.14169,6.64619 0,1.99782 -4.09784,1.28279 -4.91949,-0.8584 -1.10954,-2.89142 -4.40877,-2.48059 -10.6298,1.32364 -2.97465,1.81904 -6.77747,3.92354 -8.45071,4.67669 -3.19634,1.43871 -4.0428,4.71466 -1.60715,6.21997 l 1.4351,0.88694 -5.67798,5.24188 c -3.12288,2.88303 -6.16044,4.94369 -6.75012,4.57925 -0.58968,-0.36444 -1.49636,0.0238 -2.01485,0.86271 l -0.94272,1.52534 1.64054,1.01391 1.64054,1.01391 -1.37869,4.99319 -1.37869,4.9932 4.30574,2.6254 c 2.36816,1.44398 3.64285,2.62768 2.83264,2.63046 -0.81021,0.003 -2.15284,1.49692 -2.98363,3.3203 l -1.51053,3.31525 -4.34676,2.2478 -4.34677,2.2478 -3.4865,-2.01494 c -4.18338,-2.41768 -8.84732,-2.21911 -12.03763,0.51251 l -2.33978,2.00339 -4.01933,-0.23073 c -6.79457,-0.39002 -7.06374,-0.5011 -7.77131,-3.20683 l -0.68708,-2.6274 2.32599,-2.10499 c 1.2793,-1.15775 3.19076,-2.16564 4.24769,-2.23977 1.05694,-0.0741 0.44153,-0.54823 -1.36758,-1.05356 l -3.28928,-0.91879 -2.8755,2.74371 -2.87551,2.7437 1.1882,1.60371 1.18819,1.60371 -1.55704,2.90935 -1.55704,2.90936 -3.18632,-0.79972 -3.18632,-0.79972 -0.83872,1.35708 c -0.46129,0.74639 -2.32393,1.35708 -4.1392,1.35708 h -3.30048 v -2.62443 c 0,-1.44344 0.5358,-2.95557 1.19066,-3.3603 0.65487,-0.40473 1.5136,-2.41811 1.9083,-4.47417 l 0.71762,-3.73829 -1.39779,-1.69014 c -0.76879,-0.92958 -2.00625,-1.69014 -2.74991,-1.69014 h -1.35211 l 1.39779,1.69014 1.3978,1.69014 -0.71381,3.71831 c -0.82191,4.28147 -2.31684,4.73168 -4.4898,1.35211 l -1.52139,-2.36619 0.90203,2.70422 c 0.49612,1.48733 1.07877,3.92113 1.2948,5.40845 0.21602,1.48733 0.8102,3.70747 1.32041,4.93366 l 0.92764,2.22943 -1.20101,0.74226 c -0.66055,0.40825 -2.6795,1.04295 -4.48654,1.41046 -1.80705,0.3675 -5.29787,1.27945 -7.75738,2.02656 -2.45951,0.7471 -5.50176,0.9727 -6.76056,0.50132 l -2.28872,-0.85704 1.80654,2.22209 1.80654,2.2221 -0.87225,1.41134 c -1.62208,2.62458 1.3722,1.4328 3.94263,-1.56924 l 2.55205,-2.98059 1.03369,2.64256 1.03369,2.64256 0.095,-1.69014 0.095,-1.69014 h 2.62443 c 1.44344,0 2.95892,-0.54123 3.36775,-1.20272 0.40883,-0.6615 2.72643,-1.48146 5.15022,-1.82213 2.42379,-0.34068 5.47341,-1.08211 6.77692,-1.64764 l 2.37003,-1.02822 2.09191,4.54049 2.09192,4.5405 -0.73468,-5.59057 -0.73468,-5.59056 3.62366,-0.69271 c 4.58807,-0.87706 7.17534,0.0998 7.17534,2.70922 v 2.03901 l 3.59983,-2.35869 3.59982,-2.3587 8.83266,0.82481 8.83265,0.8248 2.02225,2.02225 c 1.11224,1.11223 1.75424,2.1909 1.42667,2.39704 -0.32756,0.20613 -2.5484,1.74174 -4.93519,3.41247 -2.38678,1.67073 -5.27693,3.03768 -6.42253,3.03768 -1.14561,0 -2.08292,0.60846 -2.08292,1.35212 0,1.80184 0.58158,1.72618 6.46596,-0.84114 l 5.027,-2.19326 5.27535,0.23195 c 2.90144,0.12757 6.43939,1.04728 7.86211,2.0438 l 2.58678,1.81184 2.84481,-0.74393 2.84482,-0.74394 -1.06784,2.58354 c -0.58731,1.42094 -1.3758,5.47367 -1.7522,9.00607 l -0.68437,6.42253 2.53823,0.1602 c 1.39602,0.0881 3.30331,0.0604 4.23842,-0.0616 l 1.70019,-0.22178 1.25866,3.31052 c 0.69226,1.82078 1.95394,3.74023 2.80373,4.26543 l 1.54507,0.9549 -0.79342,3.16122 -0.79341,3.16123 2.35368,1.31718 2.35368,1.31719 -3.8075,2.99498 -3.8075,2.99498 0.5985,2.28868 c 0.32918,1.25878 -0.21689,3.40381 -1.21349,4.76674 l -1.812,2.47805 0.75117,2.99291 0.75117,2.9929 -4.49859,0.865 c -2.47422,0.47576 -5.95087,1.11571 -7.72587,1.42213 l -3.22729,0.55711 -3.8713,4.23854 c -3.81181,4.17339 -4.89161,6.77587 -2.81139,6.77587 1.54159,0 1.09717,6.46964 -0.95202,13.85915 L 489.14375,384 h -3.13996 c -1.72699,0 -3.53459,0.6385 -4.0169,1.4189 l -0.87694,1.41891 -3.20313,-3.45624 -3.20313,-3.45624 -15.9434,0.84486 -15.94339,0.84485 -3.20485,2.00624 c -1.76267,1.10343 -3.50687,3.16117 -3.87601,4.57276 -0.36914,1.41159 -1.20864,2.56652 -1.86557,2.56652 -0.65693,0 -1.19442,1.86535 -1.19442,4.14523 0,5.14031 -2.15936,9.3759 -4.77996,9.3759 h -1.9806 v 3.3327 3.33271 l -2.69077,1.44006 c -1.47992,0.79203 -2.59701,1.87823 -2.48243,2.41377 0.11459,0.53554 -0.26363,2.65485 -0.8405,4.70958 l -1.04884,3.73587 1.52165,1.83347 1.52165,1.83348 -0.54156,3.21939 c -0.56138,3.33715 -0.90417,3.45217 -5.83572,1.95804 l -2.95991,-0.89678 -1.47595,2.75785 -1.47596,2.75784 -5.4964,-0.21537 -5.49639,-0.21537 z m 11.6474,-2.28355 1.52436,-2.8483 3.80936,0.76187 3.80935,0.76187 0.6927,-1.80514 c 0.38098,-0.99283 0.0558,-2.442 -0.72252,-3.22037 l -1.41522,-1.41522 0.92714,-6.18264 0.92715,-6.18265 2.6219,-1.4032 2.62191,-1.4032 v -3.33271 -3.33271 h 1.98059 c 2.58737,0 4.77997,-4.21714 4.77997,-9.19355 v -3.96289 l 2.82361,-3.58964 c 1.55299,-1.9743 4.44313,-4.39117 6.42254,-5.37083 l 3.59892,-1.78119 15.80279,-0.3045 15.80279,-0.3045 2.50005,2.50005 2.50005,2.50005 3.28471,-0.77541 3.28471,-0.77542 2.18509,-6.10745 2.18508,-6.10746 -1.02971,-2.63124 c -0.56635,-1.44717 -1.07248,-3.7163 -1.12475,-5.0425 l -0.095,-2.41126 4.68732,-4.68733 4.68732,-4.68732 h 2.68568 c 1.47712,0 4.09826,-0.64362 5.82476,-1.43026 l 3.13908,-1.43026 1.65693,-5.30901 c 0.91131,-2.91996 1.65693,-6.15677 1.65693,-7.19291 0,-1.03615 0.81913,-2.56372 1.82029,-3.39461 l 1.82028,-1.5107 -0.29356,-4.83517 c -0.16145,-2.65935 -0.98058,-5.5222 -1.82028,-6.3619 -0.8397,-0.8397 -1.52673,-2.27917 -1.52673,-3.19881 v -1.67208 l -4.39436,-0.42369 -4.39437,-0.4237 v -8.09274 -8.09274 l -4.68026,-2.38613 c -6.0608,-3.08997 -10.5364,-3.0122 -18.30565,0.31809 -7.76588,3.32884 -7.43662,3.34388 -7.43662,-0.33949 v -3.04372 l 5.57824,-2.70276 c 3.06803,-1.48652 5.52806,-3.31121 5.46674,-4.05488 l -0.1115,-1.35211 -7.46793,-1.16356 -7.46793,-1.16356 -4.58568,2.70562 -4.58567,2.70561 -2.26663,-2.64723 c -1.24664,-1.45597 -2.99805,-2.40169 -3.89201,-2.1016 l -1.62538,0.54563 v 4.58488 4.58487 l -2.20264,0.43668 -2.20264,0.43668 -0.88958,-3.54438 -0.88959,-3.54438 -4.34439,0.88349 c -7.04978,1.43366 -13.13313,3.81788 -13.13313,5.14719 v 1.23819 l -2.87631,-0.75217 -2.87631,-0.75217 -3.2082,2.10209 c -1.76451,1.15615 -3.2082,2.99549 -3.2082,4.08743 v 1.98534 l -1.59354,-0.53118 c -0.87645,-0.29215 -2.24546,-1.59539 -3.04225,-2.89609 l -1.44871,-2.36492 2.36619,-1.76001 c 1.30141,-0.968 2.3662,-2.23304 2.3662,-2.81119 v -1.05119 l -7.59071,0.89214 -7.59071,0.89214 0.85591,-3.4102 0.85591,-3.4102 h -1.37788 c -2.04154,0 -1.67079,-2.60447 0.70961,-4.98487 l 2.08747,-2.08747 2.41336,2.18405 c 1.32734,1.20123 3.06091,2.18406 3.85237,2.18406 0.79146,0 1.75826,0.83196 2.14846,1.8488 l 0.70945,1.84879 7.20986,-0.28273 c 3.96542,-0.1555 8.87494,-0.9693 10.91005,-1.80844 l 3.70018,-1.52571 -1.33399,-3.50866 c -0.73369,-1.92976 -1.33399,-5.2944 -1.33399,-7.47697 v -3.96832 h 1.9155 c 1.05352,0 2.22238,0.76056 2.59748,1.69014 l 0.68198,1.69014 0.10675,-2.96245 c 0.0587,-1.62935 -0.50171,-3.3385 -1.24537,-3.79811 -2.44383,-1.51037 -1.41346,-3.38028 1.86261,-3.38028 1.7681,0 3.97044,0.91058 4.89409,2.0235 l 1.67936,2.02351 -1.57469,6.25364 c -1.73749,6.90022 -1.21922,8.53613 1.88749,5.95779 l 2.05364,-1.70437 2.79414,0.73069 2.79414,0.73068 0.74461,-1.94043 0.74461,-1.94044 -1.61978,-1.95172 -1.61979,-1.95172 0.87226,-1.41134 c 0.47974,-0.77624 1.67806,-1.41134 2.66293,-1.41134 0.98487,0 2.11525,-1.2412 2.51196,-2.75821 l 0.72129,-2.75822 3.83078,0.91699 c 5.15263,1.2334 5.85894,1.72003 5.85894,4.03665 v 1.98183 l -3.38028,1.28518 -3.38028,1.28518 v 2.06164 2.06163 h 5.24289 5.24289 l 1.68323,-2.02816 1.68323,-2.02817 h 4.30841 c 2.36962,0 5.42976,0.81995 6.80031,1.82212 l 2.49189,1.82212 3.85845,-1.92485 c 2.12214,-1.05866 4.54455,-3.20686 5.38314,-4.77378 l 1.5247,-2.84893 -2.82648,-2.28874 -2.82648,-2.28875 0.76734,-4.72855 0.76733,-4.72854 -1.50113,-0.92775 c -0.82562,-0.51026 -1.50113,-1.75733 -1.50113,-2.77126 v -1.84352 l 4.62165,-1.52528 4.62164,-1.52528 2.13892,-3.2644 c 1.17641,-1.79542 2.13892,-4.82654 2.13892,-6.73582 v -3.47143 l 2.3662,-1.00313 c 1.3014,-0.55172 4.70688,-2.45237 7.56772,-4.22367 l 5.20153,-3.22055 -2.49731,-1.32586 c -4.16506,-2.2113 -8.8008,-6.86523 -10.04391,-10.08331 l -1.17519,-3.04225 -3.92424,0 h -3.92425 l -1.68323,-2.02817 -1.68323,-2.02817 h -3.74612 -3.74611 l -0.82072,-2.13875 c -0.4514,-1.17632 -0.82072,-2.96875 -0.82072,-3.98319 v -1.84444 l 5.98215,0.3524 c 3.29018,0.19382 6.88171,1.09897 7.98119,2.01145 l 1.99904,1.65906 0.63853,-1.74657 0.63853,-1.74658 1.79155,1.69014 c 0.98535,0.92958 2.8816,1.69014 4.21389,1.69014 h 2.42235 l 1.68881,2.70423 1.68882,2.70422 4.33834,0 h 4.33833 l 3.4491,-4.52199 c 5.36462,-7.03339 4.15468,-8.99913 -5.53912,-8.99913 -7.09337,0 -16.70193,-6.06682 -16.70193,-10.54555 v -1.9615 l 4.30564,0.86113 c 2.36811,0.47362 5.30616,1.76658 6.529,2.87324 1.22285,1.10666 3.24024,2.01211 4.48309,2.01211 h 2.25973 v -2.82731 -2.82732 l -4.73239,-5.52874 c -2.60282,-3.0408 -4.7324,-6.02767 -4.7324,-6.63747 0,-0.6098 -0.96552,-1.10873 -2.14562,-1.10873 h -2.14561 l -1.5311,-4.05634 -1.5311,-4.05634 -4.09793,-0.1557 c -2.25386,-0.0856 -5.199,-0.0412 -6.54475,0.0987 -1.34575,0.13989 -3.29402,-0.44876 -4.32948,-1.30812 l -1.88266,-1.56247 -3.10714,0.8806 c -1.70893,0.48433 -5.06059,1.87693 -7.44813,3.09467 l -4.34099,2.21406 -1.01964,-1.01964 -1.01963,-1.01964 1.42834,-2.30135 c 0.78559,-1.26574 3.89759,-3.1006 6.91556,-4.07746 l 5.4872,-1.77612 0.71639,-2.73948 0.71639,-2.73947 3.13713,0.97601 c 1.72543,0.53681 3.33996,1.50404 3.58784,2.1494 0.24789,0.64536 2.7979,1.17338 5.66669,1.17338 2.86878,0 5.59202,0.60846 6.05162,1.35212 1.3173,2.13143 5.8239,1.57769 7.20206,-0.88495 l 1.25192,-2.23706 2.19555,0.84251 2.19554,0.84251 v 4.0022 l 0,4.00219 2.18888,2.18888 2.18887,2.18887 2.54352,-2.30186 c 1.39894,-1.26602 2.54352,-3.38854 2.54352,-4.71672 0,-1.32817 0.64679,-2.8146 1.43732,-3.30317 l 1.43731,-0.88831 2.45196,2.21899 2.45197,2.219 0.80068,-2.08654 0.80068,-2.08654 h -1.30968 c -0.72032,0 -1.30967,-0.91268 -1.30967,-2.02817 v -2.02817 h 4.73239 4.7324 v -3.38028 -3.38028 h -5.40846 -5.40845 v -2.02817 -2.02817 h 2.02817 c 1.1155,0 2.02817,-0.60845 2.02817,-1.35211 0,-0.74367 -1.2169,-1.35212 -2.70422,-1.35212 h -2.70423 v -2.61311 -2.61311 l 2.52564,-0.8016 c 2.9988,-0.95178 9.64338,1.31522 9.64338,3.29013 v 1.38558 h 3.38028 3.38028 v -1.72732 c 0,-0.95002 -0.93297,-3.05931 -2.07326,-4.6873 l -2.07326,-2.95999 2.86199,-2.86199 c 1.5741,-1.5741 2.59415,-3.12983 2.26679,-3.4572 -0.92618,-0.92617 -5.0386,0.9652 -5.0386,2.31733 0,0.6641 -1.236,1.20746 -2.74666,1.20746 l -2.74666,0 -0.89599,-2.3662 c -1.90417,-5.02864 -7.48958,-7.87106 -14.23041,-7.24186 l -3.71831,0.34708 v -1.98542 c 0,-2.26414 2.81231,-3.62684 7.485,-3.62684 l 3.2075,0 -3.30487,-7.098595 c -1.81768,-3.904225 -3.31082,-8.207994 -3.31808,-9.563931 l -0.0132,-2.46534 2.36389,0.455243 2.36388,0.455243 3.01756,5.390379 c 1.65966,2.964708 3.45078,6.303054 3.98029,7.418547 0.5295,1.115493 2.52204,3.599025 4.42787,5.518964 l 3.46515,3.49079 1.68364,-0.56122 c 0.926,-0.30866 1.68364,-1.35722 1.68364,-2.33012 v -1.768916 l 3.25517,-0.816996 3.25517,-0.816997 -0.7111,-2.719248 -0.7111,-2.719247 1.74834,-4.384984 c 0.96159,-2.411741 2.85901,-6.000037 4.21649,-7.973991 1.35748,-1.973955 2.47912,-4.407758 2.49253,-5.408451 0.0271,-2.021711 9.78358,-10.608175 12.0537,-10.608175 2.82691,0 1.37815,4.357289 -2.61329,7.859715 l -4.05634,3.559375 v 2.421478 c 0,1.331812 -0.60818,3.47801 -1.35153,4.769328 -2.73896,4.758071 -4.51835,10.582996 -4.62424,15.137696 l -0.10873,4.677173 -3.07823,1.54995 -3.07822,1.54995 2.18069,1.80982 2.1807,1.80982 -0.69792,3.45601 c -0.38386,1.90081 -1.07904,4.44049 -1.54484,5.64372 l -0.84691,2.18771 4.88585,2.88272 c 6.34832,3.7456 14.19606,3.65294 14.19606,-0.16761 0,-0.77489 2.156,-3.50277 4.79112,-6.06197 l 4.79113,-4.65308 1.91969,0.73666 1.9197,0.73666 2.61054,-3.31876 c 2.89244,-3.67715 4.91601,-4.18041 6.54852,-1.62862 0.5947,0.92958 2.59407,1.69014 4.44304,1.69014 h 3.36176 l 0.45569,2.3662 0.45569,2.3662 -4.68688,0 -4.68688,0 -0.77828,2.02816 -0.77828,2.02817 1.20225,0 c 1.48035,0 3.35849,7.97411 2.16034,9.17226 -0.47642,0.47642 -2.06926,0.11491 -3.53964,-0.80336 l -2.67342,-1.66957 -0.79003,2.05879 c -0.43452,1.13233 -1.87674,2.05879 -3.20493,2.05879 -1.3282,0 -2.76513,0.91267 -3.19319,2.02816 -1.02229,2.66405 -4.46802,2.59479 -5.98749,-0.12034 l -1.20237,-2.14852 -2.27984,2.27984 -2.27985,2.27985 -2.00516,-0.76946 c -1.10284,-0.4232 -3.65503,-0.14217 -5.67154,0.6245 l -3.66638,1.39396 -1.7667,-2.41611 -1.76671,-2.41611 -2.32982,1.69954 c -1.28141,0.93474 -3.45117,2.07185 -4.82171,2.5269 l -2.49187,0.82737 0.63085,4.87985 0.63085,4.87986 -2.12486,4.7324 c -1.16868,2.60281 -2.66474,5.10456 -3.3246,5.55944 l -1.19973,0.82705 1.45977,5.25746 c 0.80288,2.8916 1.46317,7.23492 1.46731,9.65182 l 0.008,4.39437 h 1.31739 c 0.72457,0 2.28139,-1.86416 3.4596,-4.14258 l 2.14221,-4.14257 1.61082,0.52935 1.61083,0.52935 0.4209,5.74631 0.42089,5.7463 -2.78709,0.72884 -2.7871,0.72884 -0.16011,3.56061 c -0.0881,1.95834 -0.0391,4.16376 0.10874,4.90094 0.3619,1.80408 -2.81549,11.75122 -4.44119,13.90362 -1.97649,2.61684 -0.82392,2.84721 6.1004,1.2193 l 6.34024,-1.49059 0.68434,-2.61695 c 0.3764,-1.43932 0.33737,-4.35182 -0.0867,-6.47224 l -0.77106,-3.8553 2.87324,0 h 2.87324 l 0.24769,-3.7183 c 0.13623,-2.04508 0.13118,-5.23944 -0.0112,-7.0986 -0.1424,-1.85915 0.062,-4.74929 0.45413,-6.42253 l 0.71304,-3.04225 1.88357,0 1.88356,0 0.88824,5.25745 0.88824,5.25746 2.61089,-0.68276 2.61088,-0.68276 v 2.41743 c 0,1.32958 -0.98873,3.50996 -2.19718,4.84529 l -2.19718,2.42786 0.0201,3.76311 c 0.0111,2.06971 -0.63669,4.57288 -1.43942,5.56261 l -1.45951,1.79949 4.98871,-0.93589 4.98871,-0.93588 v 2.46838 2.46839 l 2.15109,-2.15109 2.15109,-2.15109 v -13.17062 -13.17062 l 2.5813,-0.67502 2.58131,-0.67503 v -3.34567 -3.34568 l 4.68627,-5.47485 c 2.57745,-3.01118 6.54709,-6.60649 8.82142,-7.98959 l 4.13513,-2.51473 7.06592,0.0486 7.06591,0.0486 3.5089,2.99363 c 1.9299,1.6465 3.95257,4.21053 4.49482,5.69785 l 0.98591,2.70423 2.60378,-3.19205 c 1.43207,-1.75562 2.60377,-4.34154 2.60377,-5.74647 v -2.55444 l 1.69014,-0.0293 c 0.92958,-0.0161 2.60282,-1.99356 3.71831,-4.39437 l 2.02817,-4.3651 2.33624,-0.4314 c 1.28494,-0.23727 5.44905,-3.43164 9.25359,-7.09859 3.80454,-3.66696 7.46873,-6.66719 8.14263,-6.66719 0.67391,0 1.22529,-1.23196 1.22529,-2.73769 v -2.7377 l 3.24893,-1.23524 c 1.78692,-0.67938 3.61208,-1.82282 4.05592,-2.54097 l 0.80698,-1.30572 6.65403,-0.0515 6.65403,-0.0515 2.94035,-1.76839 2.94034,-1.7684 2.06392,3.04226 2.06393,3.04225 3.13556,0 c 1.72456,0 3.5269,0.6332 4.00521,1.40711 l 0.86964,1.40712 2.61967,-0.83145 2.61966,-0.83145 4.02711,1.78257 c 2.21491,0.98041 4.02711,2.56813 4.02711,3.52825 0,2.45141 3.84246,8.0397 6.13218,8.91834 l 1.91361,0.73433 -0.79637,-5.81016 -0.79637,-5.81016 3.71638,-2.9233 c 2.04401,-1.60782 4.88573,-2.92331 6.31494,-2.92331 l 2.59855,0 -1.95538,-2.7917 -1.95538,-2.79169 0.73888,-2.82549 c 0.84311,-3.22406 8.25493,-10.421539 10.79318,-10.481063 0.92958,-0.0218 1.69015,-0.967371 1.69015,-2.10127 v -2.061635 l -3.04226,-1.272424 c -1.67324,-0.699833 -4.00882,-2.053787 -5.19019,-3.008788 l -2.14793,-1.736363 -0.7621,-5.719934 -0.76209,-5.719933 2.25304,-4.420911 2.25304,-4.420912 -1.77061,-3.692477 -1.7706,-3.692477 1.5821,-2.956178 c 0.87015,-1.625898 4.85285,-6.200903 8.85045,-10.166678 l 7.26835,-7.2105 2.55925,0 2.55924,0 0.77828,-2.028169 0.77828,-2.028169 h -2.61422 -2.61421 l -1.2185,-2.366197 c -0.67018,-1.301408 -1.63215,-5.612784 -2.13771,-9.580834 l -0.91921,-7.214636 1.60494,-3.625798 c 1.99067,-4.4972287 7.05307,-8.4169041 12.57395,-9.7356511 L 770.02816,1.6289212 599.94293,1.4905169 429.85769,1.3521127 427.75787,3.0422535 c -3.85053,3.0992713 -7.88744,7.2781105 -11.96851,12.3892875 l -4.04162,5.061777 -9.47951,-0.308671 c -5.21372,-0.169769 -11.10657,0.141213 -13.09521,0.691072 l -3.61572,0.999743 -0.53037,9.681987 -0.53037,9.681987 -3.29054,8.788732 -3.29053,8.788733 -3.8613,3.718309 c -2.12372,2.045071 -4.63966,3.71831 -5.59097,3.71831 -0.95132,0 -2.72635,1.521127 -3.94452,3.380282 l -2.21485,3.380282 -5.13344,0 -5.13345,0 -2.94806,3.390566 c -1.62143,1.864811 -2.94806,4.060742 -2.94806,4.879846 0,0.819104 -1.36901,2.933541 -3.04225,4.69875 l -3.04225,3.20947 -3.44875,0.02336 c -1.89681,0.01285 -5.03205,0.770561 -6.96721,1.683806 l -3.51845,1.660447 -1.66311,4.238633 -1.66311,4.238638 -3.87673,2.29003 c -2.1322,1.25953 -3.87673,2.77306 -3.87673,3.36342 0,0.59036 -4.00279,3.10509 -8.8951,5.58829 l -8.8951,4.51492 -3.93567,-1.48555 c -4.11537,-1.55338 -9.37272,-0.91916 -9.37272,1.13068 v 1.19441 h -6.11349 -6.1135 l -1.54016,-3.38028 c -1.512,-3.31849 -3.81031,-4.59857 -3.81031,-2.12221 0,0.69194 -1.36902,1.4525 -3.04226,1.69014 l -3.04225,0.43207 0.44683,5.67024 0.44684,5.67025 -4.90953,8.77905 -4.90953,8.77906 -7.56156,7.1845 c -4.15887,3.95148 -9.41956,8.93056 -11.69045,11.06462 l -4.12887,3.88011 2.45001,1.79149 2.45,1.79149 3.70354,-2.73815 3.70355,-2.73814 3.91507,0.44682 3.91508,0.44683 v 2.02817 2.02817 l -5.74647,2.66923 c -3.16057,1.46808 -5.74648,3.37458 -5.74648,4.23667 0,0.86208 -1.13297,1.86371 -2.51772,2.22583 l -2.51771,0.65839 -2.15087,4.31152 -2.15087,4.31152 1.04065,2.96243 c 0.57236,1.62934 0.68978,4.78779 0.26094,7.01877 l -0.77971,4.05634 h -2.01489 -2.01489 l -0.0395,-5.26974 -0.0395,-5.26974 -3.00278,-1.99377 -3.00278,-1.99377 0,-3.21536 c 0,-1.76845 0.48622,-3.21537 1.08049,-3.21537 0.59427,0 1.85164,-2.13257 2.79415,-4.73904 l 1.71366,-4.73905 -2.02151,-2.02152 -2.02152,-2.02151 h -5.54746 l -5.54747,0 -0.71709,-1.86871 -0.71709,-1.8687 -5.23434,-0.83701 -5.23433,-0.837 -0.85398,-2.69064 c -0.46969,-1.47986 -0.47617,-3.30195 -0.0144,-4.04911 l 0.83957,-1.35846 -3.34192,-1.52268 c -1.83806,-0.83748 -3.61586,-2.5702 -3.95067,-3.85049 l -0.60873,-2.32781 -7.16673,-3.57133 -7.16673,-3.57133 -1.46589,1.17543 c -0.80624,0.64649 -3.59547,1.57339 -6.19829,2.05978 -2.60282,0.48639 -7.34358,1.55548 -10.53504,2.37575 l -5.80263,1.4914 -3.21046,-1.46279 -3.21046,-1.46278 -0.74728,1.94739 -0.74729,1.9474 -2.84324,0 c -3.12827,0 -5.693,2.08999 -7.08944,5.77714 -0.49926,1.31828 -1.98635,2.79717 -3.30462,3.28643 -1.31828,0.48927 -3.31011,1.91496 -4.42631,3.16822 -1.11619,1.25326 -3.9555,2.70169 -6.30958,3.21873 l -4.28014,0.94008 -0.74657,1.94554 c -0.41062,1.07005 -1.67835,1.94555 -2.81718,1.94555 -1.13883,0 -2.07535,0.76056 -2.08116,1.69014 -0.0136,2.17731 -6.24544,5.07042 -10.92185,5.07042 l -3.632713,0 -2.204049,4.64469 -2.204049,4.64469 -3.68493,0.42573 -3.68493,0.42574 -0.496222,2.70422 c -0.272922,1.48732 -2.571789,4.79507 -5.108593,7.35055 l -4.61237,4.64633 -9.100152,-0.11492 -9.100152,-0.11492 -2.85253,2.62464 -2.852529,2.62464 -3.501095,-1.5952 -3.501095,-1.59521 -3.78722,4.50961 c -2.082971,2.48028 -6.193242,6.82467 -9.133935,9.65418 l -5.346715,5.14459 -0.737792,6.41877 -0.737793,6.41877 -3.042253,1.33471 -3.042254,1.33471 v 3.078 c 0,1.6929 -0.733555,4.25262 -1.630123,5.68825 l -1.630123,2.61024 2.306179,2.5483 2.30618,2.5483 0,3.53205 c 0,1.94262 0.608451,3.90809 1.352113,4.36769 l 1.352112,0.83566 0,7.79718 0,7.79719 3.380282,3.17561 3.380282,3.17561 0,3.21173 c 0,3.49899 -3.167441,10.48046 -6.457118,14.23238 l -2.07468,2.36619 h -3.170721 -3.170721 l 0,2.76879 0,2.76879 -3.3220184,3.07874 -3.3220187,3.07874 2.9839906,4.25184 2.9839905,4.25184 5.396817,1.73162 5.396817,1.73161 0.50038,2.70423 c 0.275209,1.48732 1.345233,3.1908 2.377831,3.7855 1.032598,0.5947 1.902179,2.42005 1.932401,4.05633 l 0.05495,2.97507 4.154443,4.7324 4.154442,4.73239 0.619313,-1.64105 0.619312,-1.64104 8.016365,-1.57713 8.016364,-1.57712 v -1.79098 -1.79099 l 4.614843,-0.86575 c 2.538164,-0.47616 5.817991,-0.48388 7.288505,-0.0172 l 2.673662,0.84859 3.918604,-3.91861 c 2.155231,-2.15523 5.212931,-4.3294 6.794888,-4.8315 l 2.876285,-0.91289 0.869644,1.40711 c 0.478304,0.77391 2.584585,1.40711 4.680625,1.40711 h 3.810981 l 1.584217,-1.90886 1.584217,-1.90887 9.235208,0 h 9.2352 l 4.8787,-3.16156 4.87869,-3.16155 0.0167,-2.3662 0.0167,-2.3662 h 5.40845 5.40845 v -1.70395 c 0,-0.93718 1.478,-3.29792 3.28444,-5.24609 l 3.28445,-3.54212 1.50438,-5.90885 c 0.82741,-3.24987 2.1725,-7.24469 2.9891,-8.8774 l 1.48471,-2.96855 -2.38512,-5.02628 c -1.31182,-2.76446 -3.78866,-6.32703 -5.50408,-7.91683 -1.71542,-1.5898 -3.51256,-4.45885 -3.99365,-6.37567 l -0.87472,-3.48513 5.56612,-4.55907 5.56612,-4.55907 2.66783,-5.70749 c 3.68545,-7.88454 16.19475,-12.09681 34.30882,-11.55284 l 6.65897,0.19997 3.76515,2.7837 3.76516,2.7837 4.79945,0 h 4.79945 l 3.8442,3.71831 c 2.11431,2.04507 4.56399,5.08732 5.44372,6.76056 l 1.59952,3.04226 3.67073,0.0211 3.67074,0.0211 5.75139,5.0493 5.75139,5.0493 -0.005,2.3662 c -0.003,1.30141 0.60354,2.3662 1.3472,2.3662 0.74366,0 1.35211,-0.51264 1.35211,-1.1392 0,-0.62655 1.99344,-2.21273 4.42987,-3.52483 l 4.42986,-2.38564 4.89286,2.04437 4.89285,2.04436 1.45079,-1.45078 1.45078,-1.45078 5.28735,1.58412 5.28734,1.58413 5.16113,4.72741 c 2.83861,2.60007 5.92466,4.7274 6.85788,4.7274 0.93321,0 2.25627,0.9998 2.94012,2.22177 l 1.24336,2.22177 4.43404,-1.54571 c 9.17782,-3.19941 19.62171,-0.92687 23.91593,5.20399 l 1.82238,2.60181 1.93154,-0.7412 1.93154,-0.7412 8.49781,8.18763 8.49781,8.18763 1.07779,-2.91353 c 0.59278,-1.60244 0.71147,-4.58131 0.26376,-6.61972 l -0.81401,-3.70619 2.70211,-1.44613 c 6.51323,-3.48577 11.13433,-1.51909 7.80905,3.32344 -1.00728,1.46688 -2.13343,4.30693 -2.50255,6.31122 l -0.67114,3.64417 3.85467,-0.77093 3.85466,-0.77093 v 1.75269 c 0,2.68497 -4.17608,6.69801 -6.97012,6.69801 -3.51168,0 -3.11278,1.6061 1.49543,6.02105 l 3.99011,3.82276 2.27412,7.23004 2.27413,7.23005 -1.45258,1.75025 -1.45258,1.75025 4.08059,1.80624 c 2.24433,0.99344 4.45264,2.79942 4.90738,4.0133 0.45473,1.21387 1.77716,2.93055 2.93874,3.81484 l 2.11196,1.60779 -1.65672,2.71472 -1.65673,2.71472 3.34687,2.63265 3.34687,2.63265 v 3.44391 c 0,1.89416 -0.52686,3.76953 -1.17079,4.1675 -0.64393,0.39797 -0.88523,2.21733 -0.53623,4.04303 l 0.63456,3.31945 -3.63162,4.76129 -3.63162,4.76129 0.46605,2.41999 0.46605,2.41998 4.00336,0.69344 4.00337,0.69344 1.74328,3.37332 c 0.95881,1.85532 1.4794,4.47295 1.15688,5.81695 l -0.5864,2.44364 3.35092,1.52678 3.35092,1.52678 -0.415,4.81832 -0.415,4.81831 3.09677,-0.43225 3.09676,-0.43226 6.36803,3.04759 c 3.50241,1.67617 7.4328,4.24548 8.73421,5.70956 l 2.3662,2.66198 v 3.75031 3.75031 l 2.3662,0.61835 c 4.57804,1.19637 5.66526,0.90603 7.1757,-1.91626 z M 98.704225,269.07042 c -1.487324,-1.48732 -2.704226,-3.92113 -2.704226,-5.40845 v -2.70423 h 2.028169 2.028172 v -2.12731 -2.12731 l 2.36619,0.45098 2.3662,0.45099 0.46759,3.36647 c 0.25717,1.85155 1.0858,4.11928 1.84141,5.03939 0.7556,0.9201 1.02062,2.59334 0.58893,3.71831 l -0.78489,2.04538 h -2.74666 c -1.51066,0 -3.96356,-1.2169 -5.450885,-2.70422 z m 7.030985,-1.62254 c -0.89239,-0.89239 -1.62253,-2.98606 -1.62253,-4.65259 0,-1.66654 -0.60846,-3.40611 -1.35212,-3.86572 l -1.35211,-0.83565 v 2.10797 2.10797 h -2.028169 c -2.398912,0 -2.497818,0.65234 -0.628484,4.14522 l 1.399683,2.61534 h 3.60313 3.60314 z m 351.96914,-44.32629 c -0.45179,-0.73101 -0.40525,-3.54757 0.10342,-6.259 l 0.92485,-4.92989 2.52101,-0.65926 2.52102,-0.65926 0.043,-2.88456 c 0.0236,-1.5865 0.90523,-4.02311 1.95906,-5.41467 l 1.91607,-2.53012 3.50728,0.88027 c 1.929,0.48415 3.8511,1.77624 4.27132,2.87132 l 0.76403,1.99104 -3.18813,2.65608 c -1.75347,1.46084 -3.94869,2.67631 -4.87827,2.70105 l -1.69014,0.045 v 3.37 3.37 l -2.94806,3.39057 c -3.18217,3.65981 -4.5414,4.14072 -5.82646,2.06145 z m 5.09374,-4.0948 c 1.28077,-1.49582 2.32867,-3.6254 2.32867,-4.73239 v -2.01271 h -1.94837 c -2.27305,0 -2.7748,0.72537 -3.97496,5.74648 l -0.88876,3.71831 h 1.07738 c 0.59256,0 2.12528,-1.22386 3.40604,-2.71969 z m 8.48788,-12.2361 2.52199,-2.78677 -1.94352,-1.20116 -1.94352,-1.20117 -2.39708,2.16933 c -1.3184,1.19313 -2.39708,2.9877 -2.39708,3.98793 0,2.71431 3.29541,2.1963 6.15921,-0.96816 z M 335.32394,194.07632 v -2.14325 l 3.46831,-1.31865 c 1.90756,-0.72526 4.38368,-1.31865 5.50249,-1.31865 h 2.03418 l -0.43206,3.04226 -0.43207,3.04225 -5.07043,0.41965 -5.07042,0.41965 z m 4.7324,-0.72421 L 340.89199,192 h -1.35211 c -0.74367,0 -1.72816,0.60845 -2.18777,1.35211 l -0.83565,1.35211 h 1.35211 c 0.74366,0 1.72816,-0.60845 2.18777,-1.35211 z m 4.73239,-1.43191 c 0,-0.69977 -0.60845,-1.27232 -1.35211,-1.27232 -0.74366,0 -1.35211,0.94859 -1.35211,2.10797 v 2.10797 l 1.35211,-0.83565 c 0.74366,-0.45961 1.35211,-1.4082 1.35211,-2.10797 z m 60.81774,1.38084 -1.47459,-2.7553 0.84207,-2.65315 0.84208,-2.65316 h -2.11928 -2.11929 v -2.21713 c 0,-1.21943 -1.06479,-3.00382 -2.36619,-3.96532 l -2.3662,-1.74817 1.69014,-1.71356 c 2.45987,-2.49395 2.08626,-3.6326 -1.35211,-4.12093 l -3.04226,-0.43207 v -2.02817 -2.02817 l 6.08451,-0.84287 c 7.25503,-1.00502 8.11268,-0.63827 8.11268,3.4692 v 3.14278 l 2.6974,0.70539 c 1.48357,0.38796 3.09336,1.73724 3.57731,2.99838 l 0.8799,2.293 -1.69383,1.04685 -1.69383,1.04685 0.9186,2.89425 0.9186,2.89426 -1.55482,4.71117 -1.55483,4.71117 h -1.87573 c -1.03166,0 -2.53931,-1.23989 -3.35033,-2.7553 z m 5.06335,-9.56949 -1.65574,-2.71315 2.38119,-1.76782 2.3812,-1.76781 -1.98394,-1.64652 -1.98393,-1.64652 -1.41134,0.87225 -1.41135,0.87226 v -4.13613 -4.13614 h -5.40845 -5.40845 v 1.35211 c 0,0.74366 1.29296,1.35212 2.87324,1.35212 h 2.87324 l -0.81127,4.05633 -0.81126,4.05634 h 2.08548 2.08548 l -0.92321,2.90876 -0.9232,2.90876 2.0723,-0.79521 2.0723,-0.79522 0.83229,2.16889 0.83228,2.16889 -1.33316,1.33315 -1.33315,1.33316 1.45387,2.71658 1.45387,2.71659 1.82873,-4.34926 1.82873,-4.34927 z m 56.71046,-65.64704 c -1.55375,-1.55375 -0.98471,-5.45891 1.04033,-7.13954 l 1.94174,-1.6115 2.79065,1.49351 2.79066,1.49352 v 2.51199 2.51199 l -2.13876,0.82072 c -2.79636,1.07306 -5.30234,1.04159 -6.42462,-0.0807 z m 6.87363,-2.81619 0.56251,-1.68943 -2.23149,-0.85631 -2.23149,-0.8563 -1.41384,1.41383 -1.41384,1.41384 0.95474,1.54479 c 1.19466,1.933 5.02082,1.28988 5.77341,-0.97042 z m -127.14246,191.27012 2.37346,-2.37345 -4.47286,0.89457 -4.47286,0.89457 0.94896,-5.25876 c 0.52193,-2.89231 1.56478,-6.03402 2.31745,-6.98157 2.03939,-2.56743 0.0853,-3.65063 -3.57617,-1.98235 l -3.21862,1.46649 0.65733,3.43856 c 0.36152,1.89121 0.0317,5.23333 -0.73303,7.42693 -1.6728,4.79859 -1.2875,5.30565 3.83583,5.04799 l 3.96705,-0.19952 z m 70.03175,-14.24031 c -0.28192,-0.28192 -1.17144,-0.10539 -1.97671,0.39229 l -1.46412,0.90488 0.86712,1.40304 0.86713,1.40304 1.10958,-1.79534 c 0.61027,-0.98743 0.87892,-2.026 0.597,-2.30791 z m -5.55365,-6.00579 3.8988,0.7453 -2.56108,-2.66649 c -1.40859,-1.46656 -3.31651,-2.40381 -4.23982,-2.08276 l -1.67874,0.58373 -0.79935,-2.08308 -0.79936,-2.08308 -1.95601,0.75059 -1.956,0.75059 2.35489,1.72194 2.3549,1.72195 -1.97713,2.39585 -1.97713,2.39585 2.71862,-1.44785 2.71861,-1.44784 z m 156.46432,-67.25009 5.91676,-5.40845 h 3.13397 3.13397 l -0.87889,-2.76911 -0.87888,-2.76911 1.39764,-1.68405 1.39764,-1.68406 -4.66621,0.54476 -4.66621,0.54475 v 1.71468 c 0,0.94308 -0.91268,2.47214 -2.02817,3.39791 -1.11549,0.92578 -2.02817,2.90525 -2.02817,4.39882 v 2.71558 l -4.73239,-0.76797 -4.7324,-0.76796 v 1.83258 c 0,7.26178 2.27345,7.4274 9.63134,0.70163 z M 528,214.98591 c -0.45961,-0.74366 -1.4082,-1.35211 -2.10797,-1.35211 -0.69977,0 -1.27231,0.60845 -1.27231,1.35211 0,0.74366 0.94858,1.35212 2.10796,1.35212 h 2.10797 z M 225.35211,196.50704 c -0.49577,-0.49577 -0.90141,-0.0901 -0.90141,0.90141 0,0.99155 0.40564,1.39718 0.90141,0.90141 0.49578,-0.49578 0.49578,-1.30705 0,-1.80282 z m 253.97183,-45.07042 0.83565,-1.35211 h -1.35211 c -0.74366,0 -1.72816,0.60845 -2.18776,1.35211 l -0.83566,1.35211 h 1.35212 c 0.74366,0 1.72815,-0.60845 2.18776,-1.35211 z m 117.85916,-42.8169 c -0.49578,-0.49578 -0.90141,-0.0901 -0.90141,0.90141 0,0.99154 0.40563,1.39718 0.90141,0.9014 0.49577,-0.49577 0.49577,-1.30704 0,-1.80281 z M 759.88732,41.239436 c 0,-0.371831 -0.30423,-0.676056 -0.67606,-0.676056 -0.37183,0 -0.67605,0.304225 -0.67605,0.676056 0,0.371831 0.30422,0.676056 0.67605,0.676056 0.37183,0 0.67606,-0.304225 0.67606,-0.676056 z"
       id="path1" />
  </g>
</svg>
