<?xml version="1.0" encoding="UTF-8" standalone="no"?>
<svg
   version="1.1"
   id="svg-map"
   viewBox="0 0 573 326"
   preserveAspectRatio="none"
   sodipodi:docname="map2.svg"
   inkscape:version="1.4.2 (f4327f4, 2025-05-13)"
   xmlns:inkscape="http://www.inkscape.org/namespaces/inkscape"
   xmlns:sodipodi="http://sodipodi.sourceforge.net/DTD/sodipodi-0.dtd"
   xmlns="http://www.w3.org/2000/svg"
   xmlns:svg="http://www.w3.org/2000/svg">
  <sodipodi:namedview
     id="namedview185"
     pagecolor="#ffffff"
     bordercolor="#000000"
     borderopacity="0.25"
     inkscape:showpageshadow="2"
     inkscape:pageopacity="0.0"
     inkscape:pagecheckerboard="0"
     inkscape:deskcolor="#d1d1d1"
     inkscape:zoom="2.4754601"
     inkscape:cx="286.61338"
     inkscape:cy="163"
     inkscape:window-width="1920"
     inkscape:window-height="1009"
     inkscape:window-x="-8"
     inkscape:window-y="-8"
     inkscape:window-maximized="1"
     inkscape:current-layer="svg-map" />
  <defs
     id="defs185" />
  <path
     d="M 303.862 -0.124199 C 393.575 -0.0866182 483.287 -0.0508496 573 -3.63417e-08 C 578.436 24.4477 541.474 9.82939 536.385 26.5925 C 537.336 34.5621 548.921 53.186 531 48 C 523.784 59.2539 522.278 73.8861 532 83 C 519.8 89.1168 524.27 101.369 515.187 107.25 C 509.774 127.947 500.676 100.308 488.687 102.5 C 471.65 94.4161 462.409 112.356 453.578 123.503 C 445.025 135.317 440.331 127.793 432.555 122.173 C 406.712 128.771 424.769 163.617 399.935 171.772 C 385.257 184.014 385.977 160.753 379.164 155 C 386.599 144.371 381.269 110.127 369 127 C 375.29 139.063 381.594 153.691 376.292 168.374 C 371.03 174.1 356.923 168.856 354.402 182.171 C 346.427 189.544 357.148 206.353 341 209 C 349.984 214.836 356.33 223.2 356.394 231.371 C 376.104 246.028 351.009 264.27 343.75 274 C 344.112 304.299 312.814 278.135 301 290 C 298.348 302.546 287.833 309.582 288.646 322.815 C 274.617 331.797 267.48 319.677 259.457 311.321 C 246.747 308.53 252.708 292.73 241.637 285.859 C 239.825 274.223 251.947 258.284 237 252 C 238.694 232.154 219.292 208.274 199.625 209.875 C 186.133 202.84 174.969 194.776 158 200 C 159.805 189.669 149.454 186.92 143 190 C 145.255 180.335 141.955 174.95 134.047 184.82 C 126.649 181.378 133.045 166.88 117.94 174.31 C 95.0342 174.829 106.228 197.909 102.686 213.309 C 94.6344 232.994 72.7224 236.907 55.6249 236.563 C 47.8343 241.506 11.1453 259.41 11.5825 230.748 C -5.79954 228.692 0.332808 202.252 12.2389 201.371 C 14.2135 187.489 4.60469 172.366 8.31243 158.188 C 17.4194 148.534 21.7822 128.865 38.3717 129.871 C 56.6095 130.519 64.6457 109.938 80.9999 107 C 92.1083 92.2091 113.009 89.6464 132.259 89.8763 C 146.579 82.4172 141.09 105.132 147.937 108.25 C 164.072 118.142 180.262 95.6968 183 81.7202 C 169.097 67.9422 196.399 70.257 204.437 75.625 C 217.772 79.4189 226.796 69.6344 232.687 59.625 C 246.053 60.4192 248.247 42.0328 264 42 C 276.065 29.7458 267.088 2.77597 292.276 9.21855 C 298.618 7.73613 299.23 2.67812 303.862 -0.124199 Z"
     fill="#077c07"
     id="path1" />
  <path
     d="M 304.562 -0.0625 C 308.66 1.19778 297.306 14.043 292.04 14 C 284.892 14.5315 273.323 10.6425 277 22 C 277.081 36.6565 261.82 52.8274 251.688 51.3125 C 247.913 62.4138 238.266 60.9354 233.25 65.875 C 226.403 75.0981 216.216 82.6366 203 81 C 196.569 80.394 179.805 70.0592 190 86 C 183.915 93.2128 174.321 105.067 167.223 111.883 C 158.854 116.483 172.191 118.941 167.902 125.732 C 158.586 139.84 156.689 126.502 161 120.04 C 158.079 111.101 137.022 117.153 140 101 C 133.414 89.9556 114.554 94.971 104 96.32 C 94.8602 95.4125 99.8057 110.444 85.7397 108.18 C 77.1511 114.576 61.7217 119.803 56 132 C 36.7187 130.938 20.2046 138.193 17 157 C 2.56852 162.158 18.4214 178.48 16.149 192.394 C 24.2746 206.859 -11.7664 213.581 11.9889 225.109 C 17.2621 236.131 17.3644 247.952 37 241 C 40.8786 233.841 49.9902 238.157 54.8125 231.937 C 72.046 235.044 89.8457 227.827 97.5414 212.88 C 106.619 195.833 84.4055 186.615 102.875 175.937 C 119.76 158.676 148.806 175.863 159.32 190 C 159.473 197.201 167.726 201.693 165.018 189.141 C 173.435 196.772 186.536 191.267 194.179 203.697 C 201.473 206.686 213.826 201.975 219.312 211.687 C 229.347 219.107 248.054 235.81 239.165 249.504 C 245.435 249.731 247.573 254.894 248 261.28 C 255.238 269.481 244.17 275.542 246.875 284.871 C 255.343 287.096 248.086 297.848 256 300.32 C 254.191 311.266 273.518 306.238 271.922 320.661 C 278.476 324.438 281.72 318.95 286.176 316.366 C 285.813 307.423 287.771 300.083 296 297 C 293.137 279.937 315.512 280.074 328 284 C 342.202 293.415 335.788 255.587 352.875 258.625 C 361.499 247.402 358.003 236.796 349.935 228.649 C 354.465 212.468 331.775 220.804 331.159 216.861 C 354.449 209.881 309.935 204.511 314 213.28 C 315.185 214.439 284.767 214.977 292.632 210.797 C 306.074 215.257 299.202 200.268 308 201 C 304.994 211.151 321.761 203.609 318.32 197 C 318.767 207.941 334.024 200.807 342.91 202.766 C 357.094 197.957 333.039 177.397 348 174 C 345.118 192.039 360.285 157.89 370.32 165.28 C 371.594 171.425 374.492 154.378 372 149 C 380.054 135.088 350.968 142.492 359.125 134.938 C 384.008 142.75 345.168 111.645 365 114 C 366.908 131.117 387.101 102.088 384.634 125.883 C 385.339 138.096 389.983 133.546 391 129 C 389.318 137.799 377.187 165.217 395 153.68 C 396.361 147.821 398.587 136.849 403.32 139 C 403.152 149.831 406.148 160.213 392.086 164.536 C 387.35 176.1 411.625 158.966 412.516 153.473 C 405.628 136.837 426.66 105.183 442 122.32 C 442.79 136.923 454.088 106.78 462.125 106.5 C 467.288 102.026 475.345 88.5226 478.32 96 C 486.885 94.3035 490.188 98.3755 494.31 100.836 C 503.845 93.5055 508.44 120.386 511 106.04 C 513.593 98.0463 519.211 95.8547 519 90 C 520.146 84.3557 534.512 79.9687 520 78 C 518.362 62.5377 521.793 53.1867 529.32 46 C 536.298 44.4786 539.688 40.1293 532.568 34.0666 C 525.937 7.92859 560.4 15.553 571.64 6 C 574.022 21.995 540.063 11.335 536.385 26.5925 C 537.336 34.5621 548.921 53.186 531 48 C 523.784 59.2539 522.278 73.8861 532 83 C 519.8 89.1168 524.27 101.369 515.187 107.25 C 509.774 127.947 500.676 100.308 488.687 102.5 C 471.65 94.4161 462.409 112.356 453.578 123.503 C 445.025 135.317 440.331 127.793 432.555 122.173 C 406.712 128.771 424.769 163.617 399.935 171.772 C 385.257 184.014 385.977 160.753 379.164 155 C 385.895 147.606 382.255 111.813 372.18 125.281 C 365.239 132.963 384.725 148.551 378 162 C 378.86 178.762 357.063 165.173 354.402 182.171 C 346.427 189.544 357.148 206.353 341 209 C 349.984 214.836 356.33 223.2 356.394 231.371 C 376.104 246.028 351.009 264.27 343.75 274 C 344.112 304.299 312.814 278.135 301 290 C 298.348 302.546 287.833 309.582 288.646 322.815 C 274.617 331.797 267.48 319.677 259.457 311.321 C 246.885 309.178 253.629 293.465 242.33 288.006 C 238.174 275.168 252.254 260.81 238.117 252.223 C 238.027 233.945 221.805 211.918 202.93 209.012 C 187.673 210.586 179.173 189.87 161.558 200.825 C 157.235 197.527 154.253 182.926 145.562 190.844 C 141.548 187.2 144.822 170.377 136.688 184.438 C 124.788 186.343 134.963 164.925 117.94 174.31 C 95.0343 174.829 106.228 197.909 102.686 213.309 C 94.6344 232.993 72.7224 236.907 55.625 236.563 C 47.8344 241.506 11.1454 259.409 11.5826 230.748 C -5.79947 228.692 0.33287 202.252 12.239 201.371 C 14.2135 187.489 4.60476 172.366 8.3125 158.188 C 17.4195 148.534 21.7822 128.865 38.3718 129.871 C 56.6095 130.519 64.6458 109.938 81 107 C 92.1084 92.2091 113.009 89.6464 132.26 89.8763 C 145.195 84.3003 142.637 99.9554 146 109 C 162.837 117.169 178.596 98.1416 183 83.0402 C 170.381 68.2415 194.396 69.7901 204.438 75.625 C 217.772 79.4189 226.796 69.6344 232.688 59.625 C 246.053 60.4192 248.247 42.0328 264 42 C 276.065 29.7457 267.088 2.77593 292.276 9.21851 C 298.935 8.07613 299.134 1.58998 304.562 -0.0625 Z"
     fill="#000000"
     id="path2" />
  <path
     d="M 569 6 C 580.712 14.9046 546.792 17.3893 538.882 21.0817 C 532.544 32.8884 550.312 50.8739 530.188 50.875 C 517.389 62.4026 531.535 76.3076 529.686 85.333 C 518.724 90.3874 524.878 102.733 515.188 107.25 C 509.775 127.947 500.676 100.308 488.688 102.5 C 472.735 93.5364 465.159 110.908 456.125 119.25 C 449.967 131.276 440.084 133.957 434.756 122.375 C 407.294 124.912 424.033 160.342 403.258 170.016 C 391.559 182.177 385.8 170.768 383.549 162.02 C 374.15 158.769 402.644 158.081 392 161 C 387.551 179.436 410.062 158.571 412.516 153.473 C 405.628 136.837 426.66 105.183 442 122.32 C 443.131 136.659 453.879 106.948 462.125 106.5 C 467.288 102.026 475.345 88.5226 478.32 96 C 486.885 94.3035 490.187 98.3755 494.31 100.836 C 503.845 93.5055 508.44 120.386 511 106.04 C 510.477 97.388 522.859 98.8384 517 90 C 518.117 87.2064 534.59 80.4921 521.923 78.5495 C 516.162 67.0626 521.867 54.0201 527.777 47.117 C 529.89 44.3744 544.394 41.9803 533.158 37.0396 C 523.198 9.65414 556.107 15.6872 569 6.68004 Z"
     fill="#000000"
     id="path3" />
  <path
     d="M 360 113 C 368.971 119.38 369.019 122.733 377.893 115.506 C 388.183 112.402 385.139 145.518 391 129 C 389.318 137.799 377.187 165.217 395 153.68 C 396.361 147.821 398.587 136.849 403.32 139 C 402.513 148.757 406.127 156.334 397 163 C 391.371 161.971 391.784 158.384 380 160 C 381.01 149.876 387.322 120.548 373 122 C 366.043 128.911 374.667 136.324 376.25 145.188 C 375.877 156.323 372.734 133.314 362.918 140.391 C 344.797 129.54 375.944 142.544 366.033 129.55 C 364.773 121.732 354.641 123.706 360 113 Z"
     fill="#000000"
     id="path4" />
  <path
     d="M 458 111 C 451.713 118.144 463.67 111.833 455 122 C 447.89 133.052 439.805 131.988 434.756 122.375 C 410.614 123.286 421.011 151.143 409.9 162.638 C 404.237 177.541 382.932 178.694 383.549 162.02 C 374.15 158.769 402.644 158.081 392 161 C 387.536 179.268 409.894 159.049 412.601 153.742 C 408.325 138.919 418.72 115.707 436 117 C 443.752 123.427 442.93 133.139 449.622 118.488 C 453.118 116.364 452.697 110.386 458 111 Z"
     fill="#000000"
     id="path5" />
  <path
     d="M 34.5703 129.902 C 43.1287 129.639 56.812 130.462 40.7361 132.183 C 36.7342 137.173 24.662 131.674 25 144 C 14.9355 144.671 21.0602 158.801 11.625 160.25 C 9.17303 171.249 20.8695 190.265 15.3182 204.742 C -0.880023 207.543 4.33264 225.503 16 230 C 16.8768 244.946 11.5215 225.43 2.452 225.024 C -9.53683 207.814 19.2382 205.772 11.68 193 C 9.14369 176.295 3.73362 160.698 14.9802 147.257 C 19.7057 140.256 26.8527 131.557 34.5703 129.902 Z"
     fill="#000000"
     id="path6" />
  <path
     d="M 359 245 C 371.119 255.648 345.554 265.19 343.75 274 C 344.112 304.299 312.814 278.135 301 290 C 301.324 303.409 280.612 316.713 291.219 299.109 C 299.27 293.818 296.301 277.228 313.275 282.18 C 326.557 281.983 340.066 293.963 338.25 272.375 C 342.776 256.078 355.793 266.486 359 245 Z"
     fill="#000000"
     id="path7" />
  <path
     d="M 474 93 C 476.026 97.9743 488.194 92.8064 489 99 C 496.384 101.38 505.483 97.6889 507 111 C 515.989 110.999 505.77 93.7901 520 100 C 520.447 86.7144 527.751 105.335 515 104 C 517.427 122.42 500.226 112.928 496.628 104.177 C 479.482 95.0979 468.174 104.251 458.411 115.518 C 445.893 122.328 467.937 100.39 473.504 96.1652 C 474.813 96.0775 473.591 93.7932 474 93 Z"
     fill="#000000"
     id="path8" />
  <path
     d="M 372 142 C 377.172 147.343 377.334 141.337 377.781 153.449 C 380.946 168.654 373.214 173.447 359.902 173.147 C 350.148 191.433 344.429 176.35 359.59 167.819 C 367.057 157.472 375.215 174.946 371 162.36 C 378.077 159.572 369.785 149.358 372 142 Z"
     fill="#000000"
     id="path9" />
  <path
     d="M 165 189 C 173.305 196.056 181.626 193.533 191 199 C 193.637 209.602 222.845 204.72 201 210 C 187.188 202.944 175.333 194.523 158 200 C 158.47 184.443 159.007 196.799 164.883 197.223 C 167.413 197.08 164.542 190.845 165 189 Z"
     fill="#000000"
     id="path10" />
  <path
     d="M 414 145 C 423.899 157.277 387.755 191.188 385.93 164.898 C 374.117 159.012 391.635 158.163 394.41 160.181 C 380.96 173.395 408.001 167.824 408.375 156.688 C 416.987 155.689 409.111 150.16 414 145 Z"
     fill="#000000"
     id="path11" />
  <path
     d="M 318 196 C 320.872 205.587 330.647 204.065 321 209 C 330.93 212.568 307.083 203.527 314 216 C 309.714 211.267 278.811 214.718 296.58 210.494 C 305.464 214.591 303.643 191.656 307.223 204.883 C 314.42 206.351 319.624 206.321 318 196 Z"
     fill="#000000"
     id="path12" />
  <path
     d="M 138 88 C 148.479 93.162 138.42 113.319 157.056 110.494 C 163.27 120.774 156.344 114.659 145.708 112.867 C 143.221 107.716 131.326 94.6682 137 95 C 137 95 137.758 91.5489 137.758 91.5489 Z"
     fill="#000000"
     id="path13" />
  <path
     d="M 401 137 C 404.805 141.945 406.392 156.079 399.009 158.991 C 391.955 168.342 394.052 155.915 381 160 C 376.048 149.551 398.953 164.772 395 148 C 402.682 146.711 394.836 140.776 401 137 Z"
     fill="#000000"
     id="path14" />
  <path
     d="M 205.188 203.75 C 218.132 209.103 231.712 218.305 237.41 233.181 C 230.3 238.932 225.742 214.885 215.591 215.345 C 212.256 208.04 205.803 206.101 202.273 204.094 Z"
     fill="#000000"
     id="path15" />
  <path
     d="M 321 282 C 315.574 285.725 302.845 283.351 315 287 C 301.169 282.821 301.608 293.616 295.777 301.684 C 286.785 317.33 286.016 300.561 296 295.68 C 294.057 281.802 309.835 281.057 321 282 Z"
     fill="#000000"
     id="path16" />
  <path
     d="M 304.562 -0.0625 C 308.66 1.19778 297.306 14.043 292.04 14 C 284.892 14.5315 273.323 10.6425 277 22 C 274.307 6.79373 273.78 31.4272 273.062 14.9062 C 280.242 5.81318 298.639 11.8106 304.562 -0.0625 Z"
     fill="#000000"
     id="path17" />
  <path
     d="M 288 305 C 304.91 323.449 262.335 337.048 267 312 C 270.203 316.282 276.994 328.459 280.32 319 C 290.886 321.963 283.634 310.042 288 305 Z"
     fill="#000000"
     id="path18" />
  <path
     d="M 231 64 C 228.189 70.2757 222.083 83.0476 210.234 80.0746 C 202.48 82.7018 188.827 77.6971 204 75 C 219.147 81.8741 220.374 69.5595 231 64 Z"
     fill="#000000"
     id="path19" />
  <path
     d="M 13 232 C 16.473 245.802 33.0397 242.699 41.8828 236.945 C 62.794 238.542 33.4519 236.859 41.5611 240.64 C 38.25 249.374 8.61996 252.638 13 232 Z"
     fill="#000000"
     id="path20" />
  <path
     d="M 348 218 C 361.241 216.09 348.089 232.83 359 232 C 369.085 242.047 360.1 256.996 357.754 239.602 C 350.993 234.278 349.277 227.342 349.68 220 C 347.587 220.699 347.962 219.388 348 218 Z"
     fill="#000000"
     id="path21" />
  <path
     d="M 569 6 C 582.279 13.6898 540.624 22.0355 539.219 17.125 C 548.283 11.8488 563.267 13.0848 569 6 Z"
     fill="#000000"
     id="path22" />
  <path
     d="M 5 204 C 3.03777 214.894 5.62815 224.884 16 230 C 16.7928 244.896 11.6446 225.503 2.452 225.024 C -4.36735 217.585 3.24162 211.435 5 204 Z"
     fill="#000000"
     id="path23" />
  <path
     d="M 155 113 C 166.9 110.394 173.849 128.251 160.36 132 C 155.537 129.422 165.743 115.285 155 113 Z"
     fill="#000000"
     id="path24" />
  <path
     d="M 235 232 C 247.033 241.516 235.241 250.053 246.663 254.73 C 247.198 274.115 241.053 250.091 236.156 247.562 C 238.204 242.621 236.698 236.823 235 232 Z"
     fill="#000000"
     id="path25" />
  <path
     d="M 395 160 C 384.121 165.092 395.268 171.543 399 169 C 401.14 174.639 382.837 179.921 385.979 163.579 C 372.213 158.555 390.547 158.674 395 160 Z"
     fill="#000000"
     id="path26" />
  <path
     d="M 275 14 C 278.872 22.7584 274.076 38.5624 266.457 44.203 C 258.115 52.4749 263.863 38.2128 269.098 34.2461 C 273.349 28.2301 271.598 20.1771 275 14 Z"
     fill="#000000"
     id="path27" />
  <path
     d="M 124 169 C 134.919 165.171 147.455 188.937 130 183 C 131.584 174.976 128.051 172.901 124 169 Z"
     fill="#000000"
     id="path28" />
  <path
     d="M 100 199 C 103.253 215.125 106.483 191.452 103.862 210.131 C 102.688 224.6 81.4327 231.174 96 216 C 98.4857 210.723 100.685 204.956 100 199 Z"
     fill="#000000"
     id="path29" />
  <path
     d="M 130 89 C 152.048 95.401 120.498 92.9596 111.726 95.9808 C 93.3797 91.9117 122.801 91.2048 130 89 Z"
     fill="#000000"
     id="path30" />
  <path
     d="M 181 91 C 184.551 100.983 169.011 106.719 165 113 C 163.637 127.371 156.682 102.473 172.242 101.418 C 174.364 96.4902 179.766 95.5635 181 91 Z"
     fill="#000000"
     id="path31" />
  <path
     d="M 357 251 C 368.552 267.339 335.551 262.465 342 278.24 C 331.975 273.898 348.103 259.647 353.875 259.625 C 352.836 255.834 358.462 255.131 357 251 Z"
     fill="#000000"
     id="path32" />
  <path
     d="M 140 102 C 146.741 109.97 143.691 100.398 147.231 108.523 C 159.364 104.739 163.484 123.28 154.38 114.679 C 146.087 114.073 139.498 111.956 140 102 Z"
     fill="#000000"
     id="path33" />
  <path
     d="M 186 197 C 195.329 204.922 205.901 207.217 208.889 208.397 C 199.73 213.284 184.806 206.701 186 197 Z"
     fill="#000000"
     id="path34" />
  <path
     d="M 59 120 C 69.217 123.058 52.7088 136.119 44.2959 132.253 C 25.7729 125.765 61.6583 131.856 59 120 Z"
     fill="#000000"
     id="path35" />
  <path
     d="M 379 117 C 387.59 120.967 392.426 149.155 381.017 133.8 C 381.264 128.541 377.393 121.463 379 117 Z"
     fill="#000000"
     id="path36" />
  <path
     d="M 82 106 C 83.201 113.968 68.3989 117.597 62.0401 122 C 59.5147 111.714 77.1555 110.535 82 107.68 C 82 107.68 82 106.36 82 106.36 Z"
     fill="#000000"
     id="path37" />
  <path
     d="M 458 111 C 451.713 118.144 463.67 111.833 455 122 C 448.443 131.009 436.234 134.189 447.504 124.165 C 449.396 119.935 452.127 111.519 458 111 Z"
     fill="#000000"
     id="path38" />
  <path
     d="M 345 174 C 351.897 172.984 341.907 184.857 352 180 C 350.469 189.833 347.424 199.753 344.68 185 C 340.989 183.419 341.498 176.082 345 174 Z"
     fill="#000000"
     id="path39" />
  <path
     d="M 252 300 C 254.777 313.761 254.447 300.017 256 303.64 C 256.842 309.333 275.131 308.39 267 318 C 264.564 307.725 246.662 315.077 252 300 Z"
     fill="#000000"
     id="path40" />
  <path
     d="M 363 166 C 365.917 168.661 356.492 185.21 348.36 181 C 353.887 177.475 355.728 167.946 363 166 Z"
     fill="#000000"
     id="path41" />
  <path
     d="M 359 245 C 365.86 250.634 359.568 254.824 356.538 254.427 C 353.05 265.712 337.063 265.851 338 280 C 333.962 255.873 356.85 268.14 359 245 Z"
     fill="#000000"
     id="path42" />
  <path
     d="M 357 134 C 370.261 136.207 374.677 134.113 376 150 C 374.436 131.376 361.096 148.164 357 134 Z"
     fill="#000000"
     id="path43" />
  <path
     d="M 332 287 C 326.686 289.704 292.674 284.61 310.584 283.27 C 317.787 282.881 326.568 280.563 332 287 Z"
     fill="#000000"
     id="path44" />
  <path
     d="M 245 288 C 254.687 288.479 250.085 297.8 256 301.64 C 257.204 323.695 248.54 289.862 245 288 Z"
     fill="#000000"
     id="path45" />
  <path
     d="M 205.188 203.75 C 220.935 203.115 225.898 226.189 211 210 C 213.053 205.529 192.729 205.832 205.188 203.75 Z"
     fill="#000000"
     id="path46" />
  <path
     d="M 150.562 184.25 C 166.565 186.841 138.371 196.009 143 184 C 143 184 146.821 183.285 146.821 183.285 Z"
     fill="#000000"
     id="path47" />
  <path
     d="M 288 305 C 300.005 311.622 280.172 332.002 284.252 319.583 C 288.739 317.652 284.488 308.451 288 305 Z"
     fill="#000000"
     id="path48" />
  <path
     d="M 401 137 C 405.553 138.093 404.335 156.701 398 151 C 391.098 156.003 400.887 139.708 401 137 Z"
     fill="#000000"
     id="path49" />
  <path
     d="M 97 185 C 104.665 191.264 105.703 218.015 98.875 196.039 C 100.945 192.262 90.6751 188.046 97 185 Z"
     fill="#000000"
     id="path50" />
  <path
     d="M 9 157 C 15.4302 159.81 6.74707 167.185 13.6626 170.73 C 19.0712 190.745 -0.381606 161.002 9 157 Z"
     fill="#000000"
     id="path51" />
  <path
     d="M 432.75 117.688 C 444.622 114.038 445.293 139.302 438.912 126.192 C 440.289 119.031 419.989 121.064 432.75 117.688 Z"
     fill="#000000"
     id="path52" />
  <path
     d="M 16 144 C 29.1788 145.572 7.43096 166.473 10.7766 156.117 C 15.5033 153.878 14.6363 149.19 16 144 Z"
     fill="#000000"
     id="path53" />
  <path
     d="M 242 59 C 235.729 62.9085 253.115 61.6431 237.99 63.673 C 231.827 67.4125 226.973 68.8682 232.9 59.7791 C 235.525 57.8613 239.072 58.0218 242 59 Z"
     fill="#000000"
     id="path54" />
  <path
     d="M 15 197 C 23.6583 209.658 -6.41276 211.592 9.58865 203.518 C 12.9434 205.263 13.4659 198.175 15 197 Z"
     fill="#000000"
     id="path55" />
  <path
     d="M 524 84 C 524.532 86.8178 524.839 90.3427 520.68 95 C 516.158 104.729 518.253 97.8529 517 92.3601 C 518.396 89.5312 518.752 85.5654 524 84 Z"
     fill="#000000"
     id="path56" />
  <path
     d="M 372 142 C 377.258 145.806 377.798 143.633 378 155 C 371.169 170.348 373.777 146.934 372 142 Z"
     fill="#000000"
     id="path57" />
  <path
     d="M 464 105 C 475.086 103.23 447.481 127.957 455 113 C 461.073 114.953 460.135 107.882 464 105 Z"
     fill="#000000"
     id="path58" />
  <path
     d="M 206.562 74.9375 C 221.351 80.2722 186.728 83.2411 199.639 76.0562 C 201.982 76.1583 204.235 74.9936 206.562 74.9375 Z"
     fill="#000000"
     id="path59" />
  <path
     d="M 538 37 C 548.719 40.3825 534 56.6479 532.258 45.1172 C 540.444 46.5703 537.529 42.7448 538 37 Z"
     fill="#000000"
     id="path60" />
  <path
     d="M 247 256 C 249.558 259.569 251.752 281.877 248 273.04 C 242.93 267.425 247.096 263.06 247 256 Z"
     fill="#000000"
     id="path61" />
  <path
     d="M 340 211 C 355.377 219.713 316.406 221.948 336.827 214.639 C 341.26 216.193 339.725 212.852 340 211 Z"
     fill="#000000"
     id="path62" />
  <path
     d="M 304 208 C 316.385 217.605 275.381 212.203 297.744 209.872 C 299.817 209.214 302.648 210.194 304 208 Z"
     fill="#000000"
     id="path63" />
  <path
     d="M 303 201 C 308.81 201.508 317.232 211.251 303 209 C 303 206.333 303 203.667 303 201 Z"
     fill="#000000"
     id="path64" />
  <path
     d="M 528 48 C 532.772 53.9781 518.089 70.4341 523.32 54 C 522.978 48.4821 527.758 53.6621 528 48 Z"
     fill="#000000"
     id="path65" />
  <path
     d="M 84 102 C 99.7699 105.399 74.3169 115.267 81.7548 108.895 C 72.4214 110.368 83.046 106.646 84 102 Z"
     fill="#000000"
     id="path66" />
  <path
     d="M 560 13 C 553.864 19.7125 527.818 20.6965 547.25 13.875 C 551.371 12.5416 555.747 12.8458 560 13 Z"
     fill="#000000"
     id="path67" />
  <path
     d="M 348 218 C 357.734 216.809 356.463 230.862 350.133 232.867 C 349.886 225.775 351.716 221.911 348 218 Z"
     fill="#000000"
     id="path68" />
  <path
     d="M 97 213 C 104.431 228.368 80.5218 228.016 96.8348 213.496 Z"
     fill="#000000"
     id="path69" />
  <path
     d="M 471 97 C 482.232 103.471 451.168 114.038 468 101 Z"
     fill="#000000"
     id="path70" />
  <path
     d="M 48 236 C 49.8328 241.888 33.2367 235.883 41.863 241.671 C 32.7731 246.36 27.8525 245.872 36 242 C 21.3345 243.401 49.215 235.33 48 236 Z"
     fill="#000000"
     id="path71" />
  <path
     d="M 64 232 C 82.4181 228.403 57.6897 243.701 57 234.36 C 45.275 229.662 65.9086 238.368 64 232 Z"
     fill="#000000"
     id="path72" />
  <path
     d="M 414 145 C 421.078 156.462 404.115 163.386 412.375 151.688 C 412.375 151.688 412.297 148.086 412.297 148.086 Z"
     fill="#000000"
     id="path73" />
  <path
     d="M 474 93 C 477.928 96.0385 483.297 96.9542 487 99 C 479.336 97.7221 468.738 105.317 474 93 Z"
     fill="#000000"
     id="path74" />
  <path
     d="M 389 167 C 394.108 173.472 399.963 163.985 398.252 171.417 C 399.439 177.91 386.881 176.767 389 167 Z"
     fill="#000000"
     id="path75" />
  <path
     d="M 261 43 C 263.426 51.454 252.755 53.278 253.36 49 C 239.777 48.9655 259.535 46.4442 261 43 Z"
     fill="#000000"
     id="path76" />
  <path
     d="M 5 204 C 9.99176 213.316 -6.17134 230.37 3 210 C 3 210 4.04731 207.016 4.04731 207.016 Z"
     fill="#000000"
     id="path77" />
  <path
     d="M 382 149 C 385.857 154.518 383.716 159.334 394 156 C 385.524 159.559 372.797 163.001 382 149 Z"
     fill="#000000"
     id="path78" />
  <path
     d="M 184 83 C 192.617 92.5227 170.672 100.536 183 87 Z"
     fill="#000000"
     id="path79" />
  <path
     d="M 130 177 C 140.952 175.708 136.328 191.687 130 180.36 C 130 179.24 130 178.12 130 177 Z"
     fill="#000000"
     id="path80" />
  <path
     d="M 291 299 C 300.957 300.784 281.854 318.596 289.32 303 C 290.963 303.358 290.205 299.839 291 299 Z"
     fill="#000000"
     id="path81" />
  <path
     d="M 72 231 C 87.9326 230.745 81.1403 236.554 66 235 C 65.9364 232.354 72.1017 234.863 72 231 Z"
     fill="#000000"
     id="path82" />
  <path
     d="M 340 209 C 346.121 214.632 354.981 221.649 347.04 221 C 345.988 217.227 340.044 215.152 340 209 Z"
     fill="#000000"
     id="path83" />
  <path
     d="M 220 213 C 231.349 216.054 228.818 230.124 220.109 216.915 C 217.339 215.024 218.942 214.071 220 213 Z"
     fill="#000000"
     id="path84" />
  <path
     d="M 436 117 C 427.462 119.482 437.419 121.896 424 125 C 419.882 117.025 430.72 117.049 436 117 Z"
     fill="#000000"
     id="path85" />
  <path
     d="M 125 90 C 139.108 85.3699 142.86 99.886 128 92 C 127 91.3333 126 90.6667 125 90 Z"
     fill="#000000"
     id="path86" />
  <path
     d="M 275 14 C 279.322 18.8765 272.379 41.1234 273.081 22.969 C 274.234 20.3571 272.08 15.8695 275 14 Z"
     fill="#000000"
     id="path87" />
  <path
     d="M 138 96 C 148.132 97.3541 145.569 115.958 140.549 102.02 C 136.467 101.818 138.425 98.7076 138 96 Z"
     fill="#000000"
     id="path88" />
  <path
     d="M 197 73 C 205.836 88.0169 178.649 70.2942 197 73 Z"
     fill="#3c3c3c"
     id="path89" />
  <path
     d="M 127 171 C 115.029 179.905 106.612 165.656 124.199 169.569 Z"
     fill="#000000"
     id="path90" />
  <path
     d="M 148 110 C 159.406 106.057 162.257 122.177 155.68 115 C 149.411 116.874 153.737 109.964 148 110 Z"
     fill="#000000"
     id="path91" />
  <path
     d="M 95 98 C 101.62 105.435 75.1486 111.7 95 98 Z"
     fill="#000000"
     id="path92" />
  <path
     d="M 272 27 C 280.231 31.4189 263.849 51.5255 269 34 C 269 34 270.466 30.4854 270.466 30.4854 Z"
     fill="#2e2e2e"
     id="path93" />
  <path
     d="M 11 171 C 16.4183 177.241 10.8866 201.242 12 181.76 C 10.7504 179.427 8.04377 174.972 11 171 Z"
     fill="#121212"
     id="path94" />
  <path
     d="M 36 242 C 30.0828 250.926 9.43408 241.596 31.8411 242.001 Z"
     fill="#0c0c0c"
     id="path95" />
  <path
     d="M 114.625 170.938 C 127.718 170.671 112.76 172.541 108.846 175.145 C 99.3992 178.023 109.527 166.585 114.625 170.938 Z"
     fill="#121212"
     id="path96" />
  <path
     d="M 50 130 C 44.7962 134.904 20.472 133.934 40.9597 129.97 C 40.9597 129.97 45.464 129.933 45.464 129.933 Z"
     fill="#080808"
     id="path97" />
  <path
     d="M 489 96 C 496.789 108.635 468.544 96.6507 487 99 C 484.457 95.4388 476.593 98.9916 489 96 Z"
     fill="#000000"
     id="path98" />
  <path
     d="M 9 226 C 19.0436 227.899 16.5429 242.845 11.4956 231.165 C 9.37249 230.828 10.2708 227.076 9 226 Z"
     fill="#000000"
     id="path99" />
  <path
     d="M 359 245 C 368.101 251.67 354.124 258.997 356.031 249.688 C 354.651 244.03 360.66 249.737 359 245 Z"
     fill="#000000"
     id="path100" />
  <path
     d="M 314 210 C 318.072 222.042 292.002 208.502 311.739 209.002 Z"
     fill="#000000"
     id="path101" />
  <path
     d="M 384 125 C 384.521 131.19 392.473 136.613 384.819 139.41 C 378.864 137.911 384.715 129.329 384 125 Z"
     fill="#414141"
     id="path102" />
  <path
     d="M 304.625 -0.125 C 310.667 3.26593 289.218 15.4449 302.096 0.133092 Z"
     fill="#000000"
     id="path103" />
  <path
     d="M 235 232 C 249.406 242.342 236.272 251.603 235 232 Z"
     fill="#0c0c0c"
     id="path104" />
  <path
     d="M 346 187 C 348.569 197.815 349.909 179.955 351.653 196.091 C 352.08 198.782 343.245 198.884 346 187 Z"
     fill="#000000"
     id="path105" />
  <path
     d="M 143 184 C 152.902 186.098 152.28 192.357 143 188.68 C 143 187.12 143 185.56 143 184 Z"
     fill="#383838"
     id="path106" />
  <path
     d="M 124 169 C 140.238 169.718 135.239 184.17 124 169 Z"
     fill="#1f1f1f"
     id="path107" />
  <path
     d="M 369 164 C 376.858 173.608 347.624 170.196 369 164 Z"
     fill="#000000"
     id="path108" />
  <path
     d="M 182 72 C 199.41 69.6369 190.643 85.0391 182 72 Z"
     fill="#000000"
     id="path109" />
  <path
     d="M 180 71 C 185.895 69.3575 179.858 74.956 188 77 C 182.745 74.7739 173.238 81.465 180 71 Z"
     fill="#000000"
     id="path110" />
  <path
     d="M 567 11 C 558.409 16.522 551.501 15.6359 555.36 14 C 547.186 14.4348 566.421 9.35996 567 11 Z"
     fill="#2a2a2a"
     id="path111" />
  <path
     d="M 242 281 C 240.761 287.532 253.521 283.523 249.71 289.721 C 242.119 289.357 241.186 288.797 242 281 Z"
     fill="#000000"
     id="path112" />
  <path
     d="M 39 238 C 50.5887 234.339 54.2749 246.261 39 240 C 39 240 39 238.68 39 238.68 Z"
     fill="#000000"
     id="path113" />
  <path
     d="M 149 183 C 165.229 182.699 157.279 199.64 155.181 188.41 C 157.009 187.259 149.058 185.1 149 183 Z"
     fill="#000000"
     id="path114" />
  <path
     d="M 412 136 C 412.622 139.43 420.653 147.425 414.536 146.803 C 409.333 151.278 413.169 139.561 412 136 Z"
     fill="#000000"
     id="path115" />
  <path
     d="M 389 129 C 397.025 136.012 381.011 145.103 389 133.36 C 389 131.907 389 130.453 389 129 Z"
     fill="#000000"
     id="path116" />
  <path
     d="M 383 115 C 381.056 130.692 383.349 112.141 376 121 C 367.002 119.837 382.677 114.303 383 115 Z"
     fill="#000000"
     id="path117" />
  <path
     d="M 164 108 C 169.684 109.917 163.534 122.327 162.625 116.062 C 159.618 112.194 160.529 111.958 164 108 Z"
     fill="#000000"
     id="path118" />
  <path
     d="M 104 93 C 108.931 92.4007 129.244 93.193 115.736 95.4049 C 108.925 97.0908 109.24 94.65 104 93 Z"
     fill="#060606"
     id="path119" />
  <path
     d="M 231 64 C 233.432 76.1208 212.379 72.0434 231 64 Z"
     fill="#131313"
     id="path120" />
  <path
     d="M 536 16 C 547.663 15.2612 539.879 18.3459 541.625 20.375 C 537.524 23.8351 531.738 21.417 536 16 Z"
     fill="#4f4f4f"
     id="path121" />
  <path
     d="M 275 11 C 281.197 10.5506 275.02 30.6433 275 15 C 274.543 28.3968 270.074 19.3594 275 11 Z"
     fill="#000000"
     id="path122" />
  <path
     d="M 241 239 C 246.156 243.526 232.162 259.524 237.194 244.094 C 236.731 236.487 242.131 250.827 241 239 Z"
     fill="#000000"
     id="path123" />
  <path
     d="M 233 226 C 245.591 239.37 226.878 234.745 233 226 Z"
     fill="#000000"
     id="path124" />
  <path
     d="M 333 202 C 352.007 201.367 343.148 215.187 333 202 Z"
     fill="#0c0c0c"
     id="path125" />
  <path
     d="M 186 197 C 201.754 204.255 184.019 209.032 186 197 Z"
     fill="#2a2a2a"
     id="path126" />
  <path
     d="M 105 172 C 114.02 182.88 96.8169 183.062 105 172 Z"
     fill="#000000"
     id="path127" />
  <path
     d="M 318 284 C 310.217 289.886 295.43 282.401 312.082 283.121 C 312.082 283.121 315.01 283.14 315.01 283.14 Z"
     fill="#050505"
     id="path128" />
  <path
     d="M 359 239 C 370.801 249.86 357.763 254.153 359 239 Z"
     fill="#000000"
     id="path129" />
  <path
     d="M 529 80 C 534.871 91.4439 512.965 90.7991 529 80 Z"
     fill="#000000"
     id="path130" />
  <path
     d="M 537 39 C 542.693 44.9951 531.128 46.9377 530 48 C 521.001 43.1321 541.948 47.0753 537 39 Z"
     fill="#000000"
     id="path131" />
  <path
     d="M 363 166 C 366.653 169.79 352.757 185.851 360 167 C 361 166.667 362 166.333 363 166 Z"
     fill="#000000"
     id="path132" />
  <path
     d="M 395 160 C 386.185 166.961 366.839 156.513 395 160 Z"
     fill="#535353"
     id="path133" />
  <path
     d="M 373 139 C 380.648 143.532 373.366 156.668 372 140 C 372 140 372.933 139.067 372.933 139.067 Z"
     fill="#000000"
     id="path134" />
  <path
     d="M 416 134 C 421.249 147.593 407.012 141.651 415.197 134.536 Z"
     fill="#000000"
     id="path135" />
  <path
     d="M 523 71 C 536.621 80.7352 512.596 79.5249 523 71 Z"
     fill="#101010"
     id="path136" />
  <path
     d="M 236 58 C 242.063 59.5545 243.469 61.1661 242 64 C 232.063 64.1487 239.358 61.2025 236.819 58.4097 Z"
     fill="#535353"
     id="path137" />
  <path
     d="M 536 20 C 538.2 27.5423 527.717 33.864 534.102 21.1641 Z"
     fill="#000000"
     id="path138" />
  <path
     d="M 262 310 C 276.942 308.391 265.212 324.779 262 310 Z"
     fill="#383838"
     id="path139" />
  <path
     d="M 87 224 C 105.243 225.259 81.0746 233.425 87 224 Z"
     fill="#000000"
     id="path140" />
  <path
     d="M 348 218 C 358.767 217.996 354.296 230.522 351 222 C 352.446 217.55 346.417 222.537 348 218 Z"
     fill="#101010"
     id="path141" />
  <path
     d="M 134 173 C 145.579 170.186 141.029 178.029 138.886 179.685 C 138.937 176.163 137.928 173.549 134 173 Z"
     fill="#4c4c4c"
     id="path142" />
  <path
     d="M 173 104 C 170.622 115.006 156.362 106.106 173 104 Z"
     fill="#000000"
     id="path143" />
  <path
     d="M 298 290 C 303.263 298.199 292.044 304.47 297.062 291.312 Z"
     fill="#080808"
     id="path144" />
  <path
     d="M 326 286 C 342.859 284.493 327.489 297.674 326 286 Z"
     fill="#131313"
     id="path145" />
  <path
     d="M 190 203 C 210.508 206.615 196.517 213.712 190 203 Z"
     fill="#111111"
     id="path146" />
  <path
     d="M 386 168 C 399.697 169.965 385.421 181.541 386 168 Z"
     fill="#000000"
     id="path147" />
  <path
     d="M 22 139 C 20.6054 141.902 28.6973 146.428 18.1333 144.133 C 14.8559 142.446 21.3315 140.563 22 139 Z"
     fill="#494949"
     id="path148" />
  <path
     d="M 37 130 C 31.4514 137.148 17.6838 133.248 37 130 Z"
     fill="#000000"
     id="path149" />
  <path
     d="M 376 116 C 379.26 119.806 363.269 128.883 372.32 119 C 373.416 117.966 372.66 116.12 376 116 Z"
     fill="#000000"
     id="path150" />
  <path
     d="M 360 113 C 372.495 113.164 359.394 126.514 362.32 117 C 367.303 114.145 359.75 115.551 360 113 Z"
     fill="#000000"
     id="path151" />
  <path
     d="M 360 114 C 367.681 116.01 357.808 128.953 359.933 114.067 Z"
     fill="#000000"
     id="path152" />
  <path
     d="M 520 95 C 531.702 99.1524 506.578 103.914 520 98.68 C 520 97.4534 520 96.2267 520 95 Z"
     fill="#000000"
     id="path153" />
  <path
     d="M 138 92 C 146.34 97.846 126.341 101.239 138 92 Z"
     fill="#000000"
     id="path154" />
  <path
     d="M 524 84 C 524.515 85.926 525.451 93.4189 519 89 C 517.956 85.7885 522.236 85.4289 524 84 Z"
     fill="#000000"
     id="path155" />
  <path
     d="M 249 264 C 257.278 280.263 239.96 272.926 249.96 269 C 249.719 267.404 249.316 265.659 249 264 Z"
     fill="#000000"
     id="path156" />
  <path
     d="M 238 246 C 240.873 250.795 246.728 254.283 238 251.68 C 238 249.787 238 247.893 238 246 Z"
     fill="#000000"
     id="path157" />
  <path
     d="M 9 157 C 20.8711 158.919 -0.103912 173.32 9 157 Z"
     fill="#000000"
     id="path158" />
  <path
     d="M 461 112 C 460.992 119.609 445.485 118.317 457.934 112.142 Z"
     fill="#000000"
     id="path159" />
  <path
     d="M 102 92 C 118.255 89.8431 97.9188 100.026 101.32 94 C 102.744 94.5304 101.773 92.6667 102 92 Z"
     fill="#000000"
     id="path160" />
  <path
     d="M 184 80 C 192.369 83.1562 186.455 93.9065 184.253 81.7732 C 184.253 81.7732 184.067 80.4665 184.067 80.4665 Z"
     fill="#131313"
     id="path161" />
  <path
     d="M 296 289 C 298.864 292.836 296.785 308.113 292 298 C 298.548 298.327 295.221 293.093 296 289 Z"
     fill="#535353"
     id="path162" />
  <path
     d="M 359 233 C 367.305 241.83 359.407 252.875 359 233 Z"
     fill="#2a2a2a"
     id="path163" />
  <path
     d="M 6 223 C 18.241 223.766 3.86581 236.124 6 223 Z"
     fill="#4f4f4f"
     id="path164" />
  <path
     d="M 97 182 C 106.465 188.555 87.2962 190.388 96.1806 182.41 Z"
     fill="#545454"
     id="path165" />
  <path
     d="M 555.125 12.9375 C 571.92 15.6797 531.847 17.0671 555.125 12.9375 Z"
     fill="#000000"
     id="path166" />
  <path
     d="M 165 189 C 173.645 188.647 164.814 204.063 165 189 Z"
     fill="#131313"
     id="path167" />
  <path
     d="M 337 281 C 341.723 289.957 328.808 291.837 336 285 C 336.333 283.667 336.667 282.333 337 281 Z"
     fill="#494949"
     id="path168" />
  <path
     d="M 356 257 C 362.366 263.943 345.472 268.387 356 257 Z"
     fill="#0c0c0c"
     id="path169" />
  <path
     d="M 13 232 C 23.3004 240.25 11.1796 244.754 13 232 Z"
     fill="#000000"
     id="path170" />
  <path
     d="M 15 197 C 21.3666 203.545 6.71745 210.613 15 197 Z"
     fill="#0d0d0d"
     id="path171" />
  <path
     d="M 158 191 C 166.683 192.265 155.717 204.011 158 191 Z"
     fill="#000000"
     id="path172" />
  <path
     d="M 97 185 C 104.708 198.232 90.6272 189.976 97 185 Z"
     fill="#121212"
     id="path173" />
  <path
     d="M 357 134 C 369.39 136.538 369.097 139.339 358.51 137.774 C 358.007 136.516 357.503 135.258 357 134 Z"
     fill="#1c1c1c"
     id="path174" />
  <path
     d="M 439 123 C 447.21 125.641 440.531 136.14 439.253 124.773 C 439.253 124.773 439.067 123.467 439.067 123.467 Z"
     fill="#090909"
     id="path175" />
  <path
     d="M 447 125 C 450.77 133.662 436.103 133.033 447 125 Z"
     fill="#000000"
     id="path176" />
  <path
     d="M 503 106 C 514.504 115.427 502.097 116.927 503 106 Z"
     fill="#000000"
     id="path177" />
  <path
     d="M 512 100 C 527.326 98.1317 518.411 109.996 512 100 Z"
     fill="#3c3c3c"
     id="path178" />
  <path
     d="M 217 212 C 229.586 208.997 212.577 224.633 217 212 Z"
     fill="#000000"
     id="path179" />
  <path
     d="M 332 205 C 346.864 204.64 343.59 213.478 332 205 Z"
     fill="#000000"
     id="path180" />
  <path
     d="M 134 177 C 142.687 178.194 129.457 188.695 134 177 Z"
     fill="#3e703e"
     id="path181" />
  <path
     d="M 400 166 C 406.205 170.151 391.627 173.735 400 166 Z"
     fill="#131313"
     id="path182" />
  <path
     d="M 442 121 C 441.849 133.396 434.825 122.454 438.25 121.125 Z"
     fill="#000000"
     id="path183" />
  <path
     d="M 59 120 C 69.5111 122.132 56.2185 132.981 59 120 Z"
     fill="#495a49"
     id="path184" />
  <path
     d="M 489 99 C 501.573 98.7375 494.775 109.827 489 99 Z"
     fill="#000000"
     id="path185" />
</svg>
